<?xml version="1.0" encoding="utf-8"?>
<!-- Generator: Adobe Illustrator 24.0.1, SVG Export Plug-In . SVG Version: 6.00 Build 0)  -->
<svg version="1.1" id="图层_1" xmlns="http://www.w3.org/2000/svg" xmlns:xlink="http://www.w3.org/1999/xlink" x="0px" y="0px"
	 viewBox="0 0 330 88" style="enable-background:new 0 0 330 88;" xml:space="preserve">
<style type="text/css">
	.st0{fill:#FFFFFF;}
	.st1{fill:#101836;}
	.st2{fill:#FBFBFC;}
</style>
<g>
	<g>
		<path class="st0" d="M36.59,11.31C18.62,11.31,4,25.93,4,43.9C4,61.87,18.62,76.5,36.59,76.5c17.97,0,32.59-14.62,32.59-32.59
			C69.19,25.93,54.57,11.31,36.59,11.31z M36.59,75.75c-17.56,0-31.85-14.29-31.85-31.85s14.29-31.85,31.85-31.85
			c17.56,0,31.85,14.29,31.85,31.85S54.16,75.75,36.59,75.75z"/>
		<path class="st0" d="M66.88,43.9c0,16.73-13.56,30.28-30.28,30.28c-16.73,0-30.28-13.56-30.28-30.28
			c0-16.73,13.56-30.28,30.28-30.28C53.32,13.62,66.88,27.18,66.88,43.9z"/>
		<path class="st1" d="M47.68,19.84l-1.89-0.94c0,0-2.71,6.09-3.23,7.8c-0.51,1.71-0.64,3.85,1,5.19c1.03,0.85,2.82,1.13,5.22-0.06
			c2.39-1.2,8.46-6.05,8.46-6.05l-1.37-1.76c0,0-6.78,5.43-7.61,5.88c-0.83,0.45-3.01,0.96-3.91-0.77
			C43.46,27.4,47.68,19.84,47.68,19.84z"/>
		<path class="st1" d="M58.1,31.53l-0.83-1.94c0,0-6.01,2.88-7.51,3.85c-1.5,0.97-2.98,2.52-2.6,4.61c0.24,1.31,1.42,2.69,4.02,3.33
			c2.6,0.64,10.37,0.88,10.37,0.88l0.09-2.22c0,0-8.68-0.25-9.6-0.45c-0.93-0.2-2.92-1.22-2.48-3.12
			C49.98,34.56,58.1,31.53,58.1,31.53z"/>
		<path class="st1" d="M25.68,19.9l1.86-1c0,0,2.92,6,3.49,7.69c0.57,1.69,0.77,3.82-0.83,5.22c-1,0.88-2.78,1.23-5.21,0.11
			c-2.43-1.11-8.67-5.76-8.67-5.76l1.31-1.8c0,0,6.96,5.2,7.81,5.62c0.85,0.42,3.04,0.86,3.88-0.9
			C30.16,27.32,25.68,19.9,25.68,19.9z"/>
		<path class="st1" d="M15.52,31.55l0.86-1.93c0,0,5.98,2.95,7.47,3.94c1.49,0.99,2.95,2.55,2.55,4.64
			c-0.25,1.31-1.45,2.67-4.05,3.28c-2.61,0.61-10.38,0.76-10.38,0.76l-0.07-2.22c0,0,8.68-0.15,9.61-0.34
			c0.93-0.19,2.93-1.19,2.52-3.09C23.6,34.67,15.52,31.55,15.52,31.55z"/>
		<path class="st1" d="M41.18,15.33l2.08,0.4c0,0-1.81,8.32-2.44,9.99c-0.63,1.67-1.82,3.45-3.94,3.53
			c-1.33,0.05-2.93-0.81-4.11-3.21c-1.18-2.4-3.08-9.94-3.08-9.94l2.15-0.57c0,0,2.11,8.42,2.5,9.29c0.39,0.86,1.82,2.59,3.58,1.76
			C39.68,25.74,41.18,15.33,41.18,15.33z"/>
		<path class="st1" d="M12.74,46.64c0,0,3.08,2.95,4.36,2.95c1.28,0,5.26-2.69,7.44-4.49c2.18-1.79,4.08-2.82,5.89-2.31
			c1.81,0.51,2.97,2.05,2.97,2.05l5.89-0.13c0,0,1.73-2.03,3.97-2.06c2.51-0.03,5.91,2.82,7.19,3.98c1.28,1.15,3.85,2.95,5.26,2.95
			c1.41,0,4.62-3.48,4.62-3.48v3.48h2.95v6.8c0,0-3.84,1.8-8.91,0c-5.07-1.8-9.07-5.26-11.11-4.87c-2.04,0.38-4.09,0.38-5.25,2.56
			c-1.15,2.18-1.53,3.11-1.53,3.11s-1.81-4.64-4.56-5.29c-2.75-0.64-4.93-0.13-6.73,1.15c-1.8,1.28-5,3.39-7.05,4.13
			c-2.05,0.74-3.85,0.41-5.39,0c-1.54-0.41-2.82-1.05-2.82-1.05v-6.67h2.56L12.74,46.64z"/>
		<path class="st1" d="M36.47,21.34c-9.94,0-17.99,8.05-17.99,17.99c0,9.94,8.05,17.99,17.99,17.99c9.94,0,17.99-8.05,17.99-17.99
			C54.46,29.4,46.41,21.34,36.47,21.34z M36.47,56.31c-9.28,0-16.81-7.53-16.81-16.81c0-9.28,7.53-16.81,16.81-16.81
			c9.28,0,16.81,7.53,16.81,16.81C53.28,48.79,45.75,56.31,36.47,56.31z"/>
		<g>
			<path class="st1" d="M29.27,65.64c-0.06,0.06-0.14,0.1-0.22,0.13c-0.08,0.03-0.16,0.04-0.24,0.05c-0.08,0-0.16,0-0.23-0.02
				c-0.07-0.02-0.13-0.05-0.19-0.09c-0.07-0.06-0.14-0.11-0.19-0.15c-0.06-0.05-0.12-0.09-0.17-0.13c-0.06-0.04-0.12-0.09-0.18-0.13
				c-0.06-0.04-0.13-0.1-0.21-0.15c-0.04-0.03-0.1-0.06-0.19-0.11c-0.09-0.04-0.19-0.09-0.31-0.15c-0.03-0.01-0.06-0.01-0.08,0.02
				c-0.04,0.06-0.08,0.12-0.11,0.17c-0.03,0.05-0.07,0.11-0.11,0.17c-0.03,0.04-0.02,0.07,0.03,0.09c0.25,0.12,0.47,0.23,0.66,0.35
				c0.03,0.01,0.08,0.03,0.14,0.05c0.06,0.02,0.11,0.02,0.15,0.01c0.02-0.01,0.04,0,0.07,0.01c0.03,0.01,0.06,0.02,0.1,0.04
				c0.03,0.02,0.06,0.04,0.09,0.06c0.03,0.02,0.04,0.04,0.05,0.07c0.03,0.06,0.04,0.12,0.05,0.16c0.01,0.04,0.01,0.09,0,0.13
				c-0.01,0.04-0.03,0.08-0.05,0.12c-0.03,0.04-0.06,0.09-0.1,0.14c-0.05,0.06-0.1,0.12-0.13,0.17c-0.04,0.05-0.08,0.12-0.12,0.21
				c-0.05,0.09-0.1,0.2-0.17,0.35c-0.07,0.15-0.16,0.34-0.27,0.59c-0.06,0.14-0.15,0.23-0.26,0.28c-0.11,0.04-0.22,0.05-0.34,0.02
				c-0.09-0.03-0.15-0.11-0.21-0.24c-0.02-0.04-0.1-0.1-0.25-0.19c-0.15-0.09-0.35-0.19-0.58-0.3c-0.24-0.11-0.5-0.23-0.78-0.35
				c-0.29-0.12-0.57-0.24-0.85-0.34c-0.02-0.01-0.03-0.01-0.04,0.01c-0.05,0.03-0.11,0.04-0.17,0.04c-0.06,0-0.12-0.02-0.17-0.04
				c-0.06-0.03-0.1-0.06-0.12-0.09c-0.02-0.03-0.04-0.08-0.03-0.13c0-0.05,0.02-0.12,0.05-0.2c0.03-0.08,0.07-0.18,0.12-0.3
				c0.07-0.17,0.14-0.32,0.19-0.43c0.05-0.12,0.09-0.22,0.12-0.31c0.03-0.09,0.06-0.17,0.09-0.25c0.02-0.08,0.05-0.17,0.08-0.27
				c0.04-0.16,0.11-0.28,0.19-0.35c0.08-0.07,0.18-0.09,0.28-0.08c0.15,0.03,0.24,0.09,0.28,0.19c0.01,0.02,0.02,0.03,0.04,0.04
				c0.11,0.04,0.23,0.09,0.35,0.14c0.12,0.05,0.24,0.1,0.36,0.16c0.04,0.02,0.07,0.01,0.08-0.03c0.02-0.05,0.05-0.11,0.08-0.16
				c0.03-0.05,0.05-0.12,0.08-0.18c0.02-0.03,0-0.06-0.03-0.08c-0.2-0.08-0.38-0.16-0.56-0.22c-0.17-0.07-0.31-0.12-0.42-0.15
				c-0.07-0.02-0.14-0.04-0.23-0.07c-0.08-0.02-0.16-0.04-0.24-0.06c-0.08-0.02-0.15-0.03-0.22-0.04c-0.07-0.01-0.13-0.01-0.17-0.01
				c-0.04,0-0.09-0.01-0.14-0.03c-0.06-0.03-0.09-0.08-0.09-0.15c0-0.07,0.02-0.14,0.08-0.19c0.05-0.05,0.12-0.1,0.22-0.12
				c0.07-0.02,0.13-0.04,0.2-0.05c0.07-0.01,0.13-0.02,0.19-0.01c0.06,0,0.12,0.01,0.16,0.03c0.05,0.02,0.08,0.04,0.11,0.06
				c0.05,0.06,0.14,0.13,0.28,0.21c0.13,0.08,0.3,0.16,0.5,0.24c0.09,0.04,0.24,0.1,0.44,0.19c0.2,0.08,0.43,0.18,0.68,0.3
				c0.26,0.11,0.52,0.23,0.8,0.36c0.28,0.13,0.54,0.25,0.8,0.36c0.09,0.04,0.18,0.08,0.29,0.13c0.1,0.05,0.21,0.09,0.31,0.13
				c0.1,0.04,0.2,0.08,0.29,0.12c0.09,0.04,0.17,0.07,0.25,0.1c0.05,0.02,0.07,0.04,0.06,0.06C29.39,65.52,29.35,65.57,29.27,65.64z
				 M26.95,67.12c0.02-0.03,0.02-0.05,0.01-0.07c-0.01-0.02-0.04-0.03-0.07-0.02c-0.23,0.05-0.43,0.04-0.6-0.04
				c-0.17-0.08-0.29-0.2-0.37-0.38c-0.03-0.05-0.04-0.11-0.05-0.16c-0.01-0.05-0.01-0.11,0.01-0.19c0.02-0.08,0.05-0.18,0.1-0.29
				c0.05-0.12,0.12-0.27,0.2-0.46c0.02-0.04,0.01-0.07-0.03-0.08c-0.02-0.01-0.04-0.02-0.06-0.03c-0.02-0.01-0.04-0.02-0.07-0.02
				c-0.04-0.01-0.06,0-0.07,0.03c-0.13,0.23-0.26,0.41-0.38,0.53c-0.13,0.12-0.25,0.21-0.37,0.25c-0.11,0.04-0.21,0.06-0.31,0.06
				c-0.09,0-0.18,0-0.25-0.02c-0.07-0.02-0.13-0.05-0.18-0.08c-0.05-0.03-0.08-0.07-0.09-0.1c-0.04-0.09-0.06-0.17-0.05-0.22
				c-0.02,0.07-0.04,0.14-0.07,0.21c-0.02,0.07-0.04,0.13-0.06,0.19c-0.01,0.03,0,0.05,0.03,0.06c0.21,0.08,0.39,0.15,0.53,0.21
				c0.14,0.06,0.27,0.12,0.39,0.17c0.12,0.05,0.23,0.11,0.34,0.17c0.11,0.06,0.25,0.13,0.4,0.22c0.09,0.05,0.16,0.09,0.23,0.12
				c0.06,0.03,0.12,0.06,0.17,0.09c0.05,0.02,0.1,0.05,0.15,0.07c0.05,0.02,0.1,0.05,0.17,0.08c0.05,0.02,0.09,0.03,0.12,0.02
				c0.02-0.01,0.06-0.05,0.11-0.12c0.02-0.03,0.04-0.06,0.06-0.09C26.91,67.19,26.93,67.15,26.95,67.12z M24.42,65.75
				c0.23,0.06,0.42,0.04,0.59-0.06c0.08-0.05,0.16-0.1,0.23-0.18c0.07-0.07,0.15-0.17,0.23-0.31c0.03-0.04,0.02-0.07-0.03-0.09
				c-0.09-0.03-0.2-0.07-0.3-0.12c-0.11-0.04-0.22-0.09-0.34-0.13c-0.03-0.01-0.06,0-0.08,0.03c-0.07,0.12-0.13,0.25-0.2,0.41
				c-0.07,0.15-0.13,0.31-0.19,0.47C24.35,65.74,24.38,65.73,24.42,65.75z M26.57,64.7c0.02-0.05,0.01-0.07-0.04-0.09
				c-0.02-0.01-0.05-0.01-0.07-0.02c-0.02-0.01-0.04-0.02-0.06-0.03c-0.02-0.01-0.03-0.01-0.05-0.01c-0.01,0-0.02,0.02-0.04,0.04
				c-0.02,0.06-0.05,0.12-0.08,0.18c-0.03,0.06-0.05,0.11-0.08,0.17c-0.02,0.04-0.01,0.07,0.03,0.08l0.1,0.05
				c0.03,0.01,0.04,0.02,0.05,0.01c0.01-0.01,0.02-0.02,0.03-0.04c0.03-0.06,0.06-0.11,0.09-0.17C26.5,64.82,26.53,64.76,26.57,64.7
				z M27.44,66.23c0.02-0.05,0.02-0.08,0.01-0.11c-0.01-0.03-0.05-0.06-0.11-0.09c-0.14-0.08-0.26-0.14-0.36-0.2
				c-0.1-0.05-0.2-0.11-0.31-0.17c-0.04-0.02-0.07-0.01-0.09,0.03c-0.04,0.08-0.06,0.15-0.09,0.21c-0.02,0.06-0.03,0.12-0.03,0.16
				c-0.01,0.16,0.05,0.29,0.18,0.38c0.13,0.1,0.32,0.15,0.55,0.15c0.02,0.01,0.04,0,0.05-0.02c0.05-0.08,0.08-0.15,0.12-0.21
				C27.41,66.3,27.43,66.25,27.44,66.23z"/>
			<path class="st1" d="M34.61,67.51c-0.03,0.07-0.07,0.11-0.11,0.13c-0.05,0.02-0.13,0.01-0.26-0.01c-0.02,0-0.06-0.01-0.1-0.02
				c-0.05-0.01-0.1-0.02-0.16-0.03c-0.06-0.01-0.13-0.02-0.2-0.03c-0.07-0.01-0.14-0.02-0.21-0.03c-0.03,0-0.04,0-0.05,0
				c-0.01,0-0.02,0.02-0.02,0.05l-0.01,0.12c0,0.01,0.01,0.03,0.04,0.06c0.03,0.03,0.06,0.06,0.1,0.09c0.06,0.05,0.11,0.1,0.16,0.14
				c0.05,0.04,0.1,0.09,0.15,0.13c0.05,0.04,0.1,0.09,0.15,0.14c0.05,0.05,0.11,0.11,0.18,0.17c0.07,0.07,0.11,0.12,0.12,0.15
				c0.01,0.04,0,0.07-0.02,0.12c-0.02,0.03-0.06,0.05-0.13,0.04c-0.07-0.01-0.14-0.03-0.21-0.07c-0.05-0.03-0.11-0.07-0.18-0.14
				c-0.07-0.06-0.17-0.13-0.28-0.21c-0.11-0.07-0.16-0.06-0.18,0.04c-0.03,0.22-0.06,0.42-0.08,0.6c-0.02,0.19-0.04,0.31-0.06,0.38
				c-0.01,0.09-0.02,0.16-0.04,0.21c-0.01,0.06-0.03,0.1-0.06,0.13c-0.02,0.03-0.06,0.06-0.1,0.07c-0.04,0.02-0.1,0.03-0.17,0.04
				c-0.04,0.01-0.08,0-0.12-0.02c-0.04-0.02-0.07-0.05-0.1-0.08c-0.03-0.04-0.05-0.09-0.06-0.14c-0.01-0.06-0.01-0.13,0-0.2
				c0.02-0.13,0.05-0.29,0.07-0.47c0.02-0.18,0.05-0.37,0.09-0.57c0.01-0.06-0.01-0.08-0.06-0.05c-0.17,0.12-0.32,0.23-0.44,0.31
				c-0.12,0.08-0.23,0.15-0.32,0.2c-0.09,0.05-0.17,0.09-0.23,0.12c-0.07,0.03-0.13,0.05-0.19,0.07c-0.11,0.03-0.21,0.05-0.28,0.05
				c-0.07,0-0.14-0.02-0.22-0.06c-0.06-0.03-0.13-0.08-0.18-0.15c-0.06-0.07-0.1-0.14-0.11-0.2c-0.01-0.06-0.01-0.1,0-0.12
				c0.02-0.02,0.07-0.03,0.15-0.04c0.12-0.02,0.26-0.05,0.41-0.08c0.15-0.04,0.31-0.08,0.49-0.14c0.33-0.11,0.67-0.3,1.01-0.59
				c0.04-0.03,0.06-0.05,0.07-0.07c0.01-0.02,0.02-0.04,0.02-0.08c0-0.03,0-0.05-0.01-0.06c-0.01-0.01-0.04-0.01-0.08-0.02
				c-0.07-0.01-0.13-0.02-0.19-0.02c-0.06-0.01-0.1-0.01-0.13-0.01c-0.09,0-0.16,0-0.22,0c-0.06,0-0.11,0-0.15,0
				c-0.04,0-0.08,0-0.11,0.01c-0.03,0-0.06,0.01-0.09,0.02c-0.09,0.02-0.17,0.02-0.24,0c-0.07-0.02-0.1-0.08-0.1-0.18
				c0-0.05,0.02-0.09,0.06-0.12c0.04-0.04,0.11-0.07,0.21-0.1c0.04-0.02,0.09-0.02,0.15-0.01c0.06,0.01,0.16,0.03,0.31,0.06
				c0.02,0.01,0.08,0.02,0.18,0.03c0.1,0.01,0.22,0.03,0.36,0.05c0.04,0,0.07,0,0.08-0.01c0.01-0.01,0.02-0.03,0.02-0.08l0.02-0.14
				c0-0.03,0-0.06-0.01-0.07c-0.01-0.01-0.04-0.02-0.09-0.02l-0.11-0.01c-0.11-0.02-0.21-0.04-0.32-0.05
				c-0.11-0.02-0.22-0.05-0.34-0.08c-0.15-0.04-0.2-0.11-0.15-0.21c0.03-0.05,0.06-0.08,0.09-0.09c0.04-0.01,0.09,0,0.18,0.02
				c0.05,0.01,0.11,0.03,0.2,0.04c0.08,0.01,0.17,0.02,0.26,0.03c0.09,0.01,0.18,0.02,0.27,0.02c0.09,0,0.16,0,0.22,0
				c0.14-0.02,0.27-0.04,0.39-0.06c0.12-0.03,0.23-0.06,0.32-0.09c0.06-0.02,0.13-0.02,0.21,0.01c0.08,0.03,0.14,0.07,0.17,0.14
				c0.06,0.12,0.08,0.21,0.06,0.28c-0.02,0.07-0.06,0.1-0.13,0.12c-0.03,0-0.09,0.01-0.16,0.02c-0.07,0.01-0.15,0.01-0.24,0.01
				c-0.12,0-0.18,0.01-0.18,0.05c0,0.04-0.01,0.08-0.01,0.12c0,0.04-0.01,0.08-0.02,0.12c-0.01,0.04,0.01,0.07,0.07,0.07
				c0.1,0.01,0.19,0.02,0.28,0.03c0.09,0.01,0.18,0.02,0.26,0.03c0.08,0.01,0.14,0.02,0.19,0.03c0.05,0.01,0.08,0.01,0.1,0.01
				c0.09,0.01,0.14,0.03,0.17,0.05C34.64,67.41,34.64,67.45,34.61,67.51z M36.29,69.29c0,0.1-0.03,0.19-0.07,0.28
				c-0.04,0.09-0.1,0.17-0.17,0.24c-0.07,0.07-0.15,0.13-0.24,0.18c-0.09,0.05-0.18,0.09-0.28,0.11c-0.1,0.02-0.22,0.03-0.35,0.02
				c-0.13-0.01-0.25-0.03-0.38-0.07c-0.12-0.04-0.24-0.1-0.35-0.17c-0.11-0.07-0.2-0.16-0.27-0.26c-0.14-0.2-0.1-0.25,0.1-0.15
				c0.14,0.08,0.28,0.13,0.43,0.15c0.15,0.02,0.29,0.02,0.42-0.01c0.13-0.03,0.24-0.1,0.34-0.2c0.1-0.1,0.16-0.24,0.2-0.42
				c0.03-0.18,0.06-0.35,0.08-0.53c0.02-0.17,0.04-0.35,0.06-0.53c0.02-0.18,0.03-0.37,0.04-0.57c0.01-0.2,0.02-0.42,0.03-0.65
				c0-0.1,0.04-0.17,0.1-0.21c0.07-0.04,0.15-0.04,0.24,0c0.15,0.06,0.24,0.14,0.28,0.23c0.04,0.09,0.03,0.21-0.01,0.36
				c-0.04,0.16-0.07,0.31-0.1,0.44c-0.02,0.13-0.04,0.28-0.06,0.44c-0.02,0.16-0.03,0.34-0.04,0.55
				C36.3,68.73,36.29,68.98,36.29,69.29z M35.22,68.5c-0.02,0.27-0.14,0.41-0.35,0.41c-0.08,0-0.12-0.03-0.14-0.08
				c-0.02-0.05-0.01-0.16,0.03-0.34c0.01-0.05,0.02-0.13,0.03-0.24c0.01-0.11,0.02-0.22,0.03-0.35c0.01-0.12,0.01-0.24,0.02-0.36
				c0-0.12,0-0.21,0-0.28c0-0.08,0-0.15,0.02-0.19c0.01-0.04,0.04-0.07,0.09-0.09c0.02-0.01,0.04-0.02,0.08-0.02
				c0.03,0,0.06,0,0.1,0.01c0.03,0.01,0.07,0.02,0.1,0.03c0.03,0.01,0.06,0.03,0.08,0.05c0.03,0.04,0.05,0.08,0.06,0.11
				c0,0.04,0,0.11-0.02,0.23c0,0.04-0.01,0.09-0.02,0.17c-0.01,0.08-0.01,0.16-0.02,0.26c-0.01,0.1-0.02,0.2-0.03,0.31
				C35.24,68.26,35.23,68.38,35.22,68.5z"/>
			<path class="st1" d="M44.9,66.86c-0.01,0.05-0.02,0.11-0.04,0.16c-0.02,0.05-0.04,0.1-0.07,0.15c-0.03,0.05-0.05,0.09-0.07,0.12
				c-0.02,0.03-0.04,0.06-0.06,0.07c-0.1,0.08-0.22,0.14-0.36,0.16c-0.13,0.02-0.28-0.01-0.45-0.09c-0.06-0.03-0.11-0.06-0.17-0.08
				c-0.06-0.03-0.12-0.05-0.2-0.08c-0.08-0.03-0.17-0.06-0.28-0.1c-0.11-0.04-0.24-0.08-0.4-0.14c-0.15-0.05-0.27-0.09-0.38-0.13
				c-0.11-0.03-0.21-0.06-0.29-0.09c-0.09-0.02-0.17-0.04-0.24-0.06c-0.07-0.01-0.14-0.03-0.21-0.04c-0.03,0-0.05,0-0.06,0.02
				c-0.03,0.03-0.07,0.07-0.11,0.12c-0.05,0.05-0.1,0.1-0.16,0.16c-0.06,0.06-0.12,0.12-0.18,0.18c-0.06,0.06-0.12,0.12-0.17,0.17
				c-0.11,0.1-0.22,0.2-0.35,0.29c-0.12,0.09-0.24,0.18-0.36,0.25c-0.12,0.07-0.23,0.14-0.33,0.19c-0.1,0.05-0.18,0.09-0.25,0.12
				c-0.21,0.07-0.38,0.11-0.52,0.11c-0.14,0-0.23-0.06-0.27-0.19c-0.02-0.05-0.02-0.09-0.02-0.11c0.01-0.02,0.03-0.04,0.09-0.05
				c0.4-0.16,0.73-0.31,0.99-0.46c0.26-0.15,0.47-0.31,0.63-0.48c0.1-0.1,0.18-0.19,0.24-0.26c0.06-0.07,0.11-0.13,0.16-0.18
				c0.04-0.06,0.08-0.11,0.11-0.17c0.03-0.06,0.07-0.13,0.12-0.21c0.09-0.17,0.18-0.27,0.25-0.31c0.08-0.04,0.17-0.03,0.28,0.04
				c0.03,0.01,0.06,0.05,0.09,0.11c0.03,0.06,0.03,0.13,0.01,0.21c-0.01,0.04,0.01,0.06,0.05,0.07c0.42,0.1,0.88,0.18,1.37,0.24
				c0.49,0.06,0.97,0.1,1.43,0.13c0.08,0.01,0.13,0.02,0.15,0.04C44.91,66.75,44.91,66.79,44.9,66.86z M44.44,68.8
				c0.03,0.09,0.03,0.15,0.02,0.18c-0.02,0.03-0.07,0.06-0.16,0.1c-0.06,0.02-0.18,0.06-0.34,0.09c-0.16,0.04-0.35,0.07-0.57,0.11
				c-0.21,0.04-0.44,0.08-0.69,0.11c-0.24,0.04-0.47,0.07-0.69,0.1c-0.12,0.01-0.24,0.03-0.37,0.05c-0.13,0.02-0.22,0.03-0.28,0.05
				c-0.07,0.01-0.14,0.03-0.22,0.05c-0.08,0.02-0.16,0.05-0.24,0.07c-0.08,0.03-0.15,0.05-0.21,0.08c-0.06,0.03-0.11,0.05-0.13,0.06
				c-0.07,0.04-0.14,0.07-0.2,0.09c-0.07,0.02-0.13,0.02-0.17,0.01c-0.05-0.01-0.09-0.04-0.11-0.08c-0.03-0.04-0.03-0.1-0.02-0.18
				c0.02-0.08,0.04-0.15,0.08-0.2c0.03-0.05,0.08-0.09,0.13-0.12c0.05-0.03,0.1-0.05,0.15-0.07c0.06-0.01,0.12-0.02,0.18-0.01
				c0.01,0.01,0.04,0.01,0.07,0c0.03-0.01,0.07-0.01,0.11-0.02c0.03-0.01,0.05-0.03,0.05-0.06c0-0.08-0.01-0.16-0.02-0.24
				c-0.01-0.09-0.02-0.17-0.04-0.25c-0.01-0.08-0.03-0.16-0.05-0.23c-0.02-0.07-0.04-0.13-0.05-0.18c-0.02-0.06-0.04-0.12-0.06-0.16
				c-0.01-0.04-0.02-0.08-0.02-0.11c0-0.03,0.01-0.05,0.03-0.08c0.02-0.02,0.05-0.05,0.09-0.08c0.04-0.03,0.09-0.04,0.15-0.04
				c0.06,0,0.12,0.03,0.18,0.08c0.06,0.05,0.11,0.13,0.16,0.23c0.05,0.1,0.07,0.25,0.08,0.42c0.01,0.08,0.02,0.17,0.03,0.26
				c0.01,0.09,0.03,0.17,0.05,0.25c0.01,0.04,0.03,0.06,0.07,0.05c0.02,0,0.04-0.01,0.08-0.02c0.03-0.01,0.07-0.02,0.1-0.02
				c0.04-0.01,0.07-0.01,0.1-0.02c0.03-0.01,0.06-0.01,0.07-0.01c0.03-0.01,0.05-0.03,0.05-0.06c-0.01-0.18-0.03-0.39-0.07-0.63
				c-0.04-0.24-0.09-0.5-0.15-0.78c-0.02-0.09-0.04-0.17-0.04-0.23c-0.01-0.06-0.01-0.11,0-0.15c0.01-0.04,0.02-0.07,0.04-0.09
				c0.02-0.02,0.04-0.04,0.07-0.06c0.06-0.03,0.12-0.05,0.16-0.05c0.05,0,0.11,0.01,0.2,0.05c0.04,0.01,0.07,0.03,0.09,0.06
				c0.03,0.02,0.05,0.06,0.07,0.1c0.02,0.04,0.03,0.1,0.05,0.17c0.01,0.07,0.03,0.17,0.04,0.28c0,0.05,0.03,0.07,0.07,0.06
				c0.13-0.03,0.27-0.06,0.4-0.08c0.13-0.02,0.27-0.04,0.4-0.06c0.08-0.01,0.14,0,0.16,0.02c0.02,0.02,0.04,0.06,0.04,0.13
				c0.01,0.08,0.01,0.12-0.01,0.15c-0.02,0.02-0.07,0.04-0.16,0.07c-0.09,0.03-0.2,0.05-0.35,0.08c-0.14,0.03-0.29,0.06-0.45,0.08
				c-0.04,0.01-0.06,0.03-0.04,0.07c0.02,0.11,0.04,0.22,0.07,0.35c0.03,0.12,0.05,0.24,0.08,0.34c0.01,0.04,0.03,0.05,0.07,0.04
				c0.27-0.06,0.53-0.1,0.78-0.14c0.25-0.04,0.47-0.07,0.66-0.09c0.08-0.01,0.14-0.02,0.19-0.02c0.05,0,0.09,0,0.12,0.01
				c0.03,0.01,0.05,0.02,0.07,0.04C44.42,68.74,44.43,68.77,44.44,68.8z"/>
			<path class="st1" d="M48.28,64.64c0.01,0.04,0.01,0.08-0.01,0.1c-0.02,0.03-0.06,0.07-0.14,0.11c-0.22,0.13-0.42,0.22-0.59,0.27
				c-0.18,0.06-0.32,0.08-0.42,0.06c-0.06-0.01-0.1-0.02-0.13-0.05c-0.03-0.03-0.06-0.07-0.09-0.13c-0.03-0.05-0.03-0.11,0-0.17
				c0.03-0.06,0.07-0.13,0.13-0.18c0.06-0.05,0.13-0.08,0.22-0.1c0.08-0.01,0.21,0,0.38,0.03c0.06,0.01,0.12,0.01,0.19,0.01
				c0.07,0,0.13-0.01,0.18-0.02c0.11-0.03,0.19-0.04,0.22-0.02C48.24,64.57,48.27,64.6,48.28,64.64z M48.6,65.56
				c-0.06,0.07-0.14,0.15-0.25,0.24c-0.11,0.09-0.22,0.16-0.33,0.2c-0.02,0.01-0.06,0.03-0.1,0.05c-0.05,0.02-0.09,0.05-0.15,0.07
				c-0.05,0.03-0.1,0.05-0.15,0.08c-0.05,0.02-0.09,0.04-0.11,0.06c-0.05,0.03-0.1,0.04-0.17,0.04c-0.06,0-0.13-0.01-0.18-0.03
				c-0.06-0.02-0.11-0.04-0.14-0.08c-0.04-0.03-0.06-0.07-0.06-0.1c-0.02-0.23,0.06-0.37,0.24-0.42c0.07-0.02,0.15-0.04,0.23-0.05
				c0.08-0.01,0.17-0.02,0.26-0.03c0.14-0.01,0.28-0.03,0.43-0.08c0.15-0.04,0.27-0.09,0.38-0.14c0.07-0.03,0.12-0.02,0.15,0.02
				C48.67,65.43,48.66,65.49,48.6,65.56z M48.89,66.03c0,0.06-0.02,0.15-0.05,0.28c-0.03,0.13-0.11,0.3-0.22,0.51
				c-0.04,0.07-0.09,0.15-0.17,0.22c-0.08,0.07-0.15,0.12-0.21,0.15c-0.07,0.02-0.15,0.03-0.23,0.01c-0.08-0.02-0.12-0.05-0.14-0.09
				c-0.04-0.09-0.05-0.18-0.03-0.28c0.02-0.1,0.07-0.17,0.16-0.24c0.15-0.11,0.28-0.22,0.38-0.33c0.1-0.11,0.19-0.25,0.26-0.42
				c0.01-0.03,0.03-0.05,0.06-0.06c0.02-0.01,0.05-0.01,0.08,0c0.03,0.01,0.05,0.04,0.07,0.07C48.86,65.9,48.88,65.95,48.89,66.03z
				 M51.16,62.51c0.02,0.06,0.02,0.1,0.01,0.13c-0.02,0.03-0.05,0.06-0.09,0.09c-0.18,0.1-0.35,0.2-0.5,0.28
				c-0.16,0.09-0.31,0.17-0.45,0.26c-0.02,0.01-0.03,0.02-0.02,0.03c0,0.01,0.01,0.02,0.02,0.02c0.06,0.01,0.11,0.06,0.17,0.16
				c0.02,0.03,0.04,0.06,0.05,0.07c0.02,0.01,0.04,0.01,0.08-0.02c0.04-0.02,0.1-0.05,0.16-0.07c0.07-0.03,0.12-0.05,0.15-0.07
				c0.04-0.01,0.08-0.03,0.12-0.05c0.04-0.02,0.07-0.05,0.09-0.09c0.03-0.05,0.06-0.08,0.1-0.09c0.04-0.02,0.11-0.02,0.19-0.02
				c0.06,0,0.12,0.03,0.17,0.09c0.05,0.06,0.08,0.13,0.1,0.21c0.01,0.03,0.02,0.07,0.04,0.12c0.02,0.05,0.04,0.1,0.06,0.15
				c0.02,0.05,0.04,0.11,0.06,0.16c0.02,0.05,0.04,0.1,0.05,0.13c0.07,0.15,0.1,0.26,0.11,0.33c0.01,0.07-0.01,0.13-0.07,0.19
				c-0.07,0.05-0.13,0.08-0.21,0.08c-0.06,0.01-0.12,0.02-0.17,0.05c-0.06,0.03-0.12,0.06-0.2,0.11c-0.04,0.02-0.05,0.05-0.03,0.1
				c0.03,0.06,0.07,0.13,0.11,0.19c0.04,0.06,0.08,0.13,0.12,0.19c0.09,0.15,0.16,0.28,0.21,0.38c0.05,0.1,0.07,0.19,0.07,0.27
				c0,0.08-0.03,0.14-0.08,0.2c-0.05,0.06-0.13,0.12-0.22,0.17c-0.04,0.03-0.09,0.04-0.14,0.05c-0.06,0.01-0.11,0.01-0.17-0.01
				c-0.06-0.01-0.12-0.03-0.18-0.07c-0.06-0.03-0.12-0.07-0.18-0.13c-0.04-0.03-0.05-0.06-0.04-0.09c0.01-0.03,0.03-0.04,0.07-0.05
				c0.13-0.01,0.22-0.04,0.27-0.1c0.05-0.05,0.05-0.14-0.01-0.25c-0.04-0.09-0.08-0.17-0.13-0.26c-0.05-0.08-0.1-0.17-0.16-0.26
				c-0.03-0.04-0.06-0.05-0.11-0.03c-0.06,0.03-0.12,0.06-0.18,0.09c-0.06,0.03-0.11,0.06-0.17,0.08c-0.04,0.01-0.07,0.05-0.11,0.09
				c-0.02,0.03-0.04,0.05-0.06,0.07c-0.02,0.01-0.04,0.03-0.07,0.03c-0.08,0.02-0.15,0-0.21-0.05c-0.06-0.05-0.13-0.14-0.2-0.26
				c-0.01-0.02-0.03-0.05-0.05-0.09c-0.02-0.04-0.05-0.08-0.08-0.12c-0.03-0.04-0.06-0.09-0.09-0.13c-0.03-0.04-0.06-0.08-0.08-0.11
				c-0.09-0.12-0.14-0.22-0.14-0.31c0-0.09,0.03-0.15,0.1-0.19c0.01-0.01,0.03-0.02,0.05-0.03c0.02-0.01,0.04-0.02,0.06-0.02
				c0.03-0.01,0.06-0.02,0.07-0.03c0.01-0.01,0.03-0.02,0.05-0.03c0.05-0.03,0.1-0.06,0.15-0.09c0.05-0.03,0.09-0.06,0.13-0.08
				c0.05-0.03,0.07-0.06,0.05-0.11c-0.01-0.03-0.03-0.07-0.05-0.1c-0.02-0.04-0.04-0.07-0.05-0.09c-0.03-0.06-0.06-0.08-0.1-0.06
				c-0.11,0.06-0.22,0.13-0.33,0.19c-0.11,0.06-0.23,0.13-0.36,0.21c-0.08,0.04-0.12,0.09-0.13,0.14c-0.01,0.05,0.02,0.13,0.09,0.25
				c0.15,0.26,0.29,0.5,0.4,0.71c0.11,0.21,0.2,0.41,0.27,0.58c0.07,0.18,0.11,0.34,0.13,0.5c0.02,0.15,0.02,0.3-0.01,0.45
				c-0.03,0.14-0.08,0.26-0.15,0.36c-0.07,0.1-0.14,0.16-0.21,0.2c-0.08,0.04-0.16,0.06-0.24,0.07c-0.08,0-0.14-0.01-0.18-0.04
				c-0.06-0.03-0.09-0.08-0.09-0.13c0-0.05,0.03-0.11,0.08-0.18c0.05-0.06,0.08-0.13,0.11-0.19c0.03-0.06,0.05-0.13,0.07-0.2
				c0.02-0.07,0.02-0.15,0.03-0.24c0-0.09,0-0.19-0.01-0.31c0-0.09-0.03-0.21-0.08-0.36c-0.05-0.15-0.11-0.3-0.19-0.46
				c-0.08-0.16-0.16-0.31-0.26-0.46c-0.09-0.15-0.19-0.26-0.28-0.35c-0.03-0.03-0.05-0.06-0.07-0.1c-0.01-0.04-0.02-0.08-0.03-0.12
				c0-0.04,0-0.08,0.01-0.12c0.01-0.04,0.02-0.06,0.04-0.08c0.04-0.03,0.07-0.05,0.1-0.06c0.03-0.01,0.06-0.02,0.1-0.01
				c0.04,0,0.08-0.01,0.12-0.03c0.13-0.08,0.26-0.15,0.37-0.21c0.11-0.06,0.23-0.13,0.35-0.2c0.15-0.08,0.3-0.17,0.45-0.25
				c0.15-0.08,0.3-0.16,0.44-0.24c0.14-0.08,0.28-0.15,0.41-0.21c0.13-0.07,0.25-0.12,0.35-0.17c0.08-0.04,0.14-0.05,0.19-0.03
				C51.11,62.45,51.14,62.48,51.16,62.51z M51.09,63.78c-0.04-0.06-0.09-0.09-0.13-0.09c-0.04,0-0.1,0.02-0.18,0.06
				c-0.07,0.04-0.15,0.08-0.26,0.14c-0.1,0.06-0.21,0.12-0.31,0.18c-0.11,0.06-0.2,0.12-0.29,0.17c-0.09,0.05-0.15,0.08-0.17,0.1
				c-0.05,0.03-0.06,0.08-0.03,0.14c0.03,0.07,0.06,0.09,0.11,0.06c0.22-0.13,0.44-0.25,0.66-0.37c0.22-0.12,0.42-0.22,0.6-0.31
				C51.11,63.85,51.12,63.82,51.09,63.78z M50.66,65.58c-0.01,0.1-0.06,0.23-0.14,0.38c-0.08,0.15-0.19,0.34-0.34,0.57
				c-0.06,0.09-0.1,0.14-0.14,0.16c-0.04,0.02-0.09,0-0.16-0.03c-0.07-0.03-0.07-0.11,0.01-0.24c0.06-0.09,0.12-0.22,0.18-0.37
				c0.06-0.15,0.1-0.3,0.12-0.44c0.02-0.1,0.05-0.18,0.11-0.22c0.06-0.04,0.13-0.06,0.2-0.05c0.07,0.01,0.12,0.04,0.14,0.08
				C50.65,65.44,50.66,65.5,50.66,65.58z M51.27,64.13c-0.01-0.05-0.04-0.06-0.09-0.04c-0.09,0.05-0.2,0.1-0.3,0.15
				c-0.11,0.05-0.21,0.11-0.32,0.17c-0.11,0.06-0.21,0.12-0.32,0.18c-0.1,0.06-0.2,0.12-0.28,0.18c-0.04,0.03-0.05,0.06-0.01,0.11
				c0.03,0.04,0.05,0.06,0.07,0.06c0.02,0,0.04,0,0.06-0.01c0.1-0.06,0.2-0.12,0.31-0.18c0.11-0.06,0.22-0.12,0.31-0.17
				c0.1-0.05,0.19-0.1,0.26-0.14c0.08-0.04,0.13-0.07,0.17-0.08c0.06-0.03,0.11-0.06,0.13-0.09C51.29,64.24,51.29,64.19,51.27,64.13
				z M52.9,64.86c0.04-0.01,0.07,0,0.1,0.02c0.03,0.02,0.04,0.05,0.05,0.08c0.01,0.03,0,0.07-0.02,0.1
				c-0.02,0.03-0.05,0.06-0.1,0.08c-0.12,0.05-0.28,0.08-0.47,0.08c-0.19,0-0.41-0.01-0.66-0.03c-0.15-0.01-0.26-0.05-0.34-0.11
				c-0.08-0.06-0.11-0.13-0.1-0.2c0.02-0.1,0.07-0.17,0.15-0.21c0.08-0.04,0.17-0.04,0.26,0c0.1,0.04,0.2,0.07,0.31,0.1
				c0.11,0.03,0.22,0.05,0.32,0.06c0.1,0.02,0.2,0.03,0.28,0.03C52.78,64.87,52.85,64.87,52.9,64.86z"/>
		</g>
		<g>
			<path class="st2" d="M25.69,50.28c0.01,0.02,0.02,0.03,0.03,0.05c0.01,0.02,0.02,0.03,0.03,0.05c0.01,0.02,0.01,0.03,0.02,0.04
				l-0.95,0.66c-0.02-0.02-0.04-0.05-0.07-0.08c-0.02-0.03-0.04-0.06-0.05-0.08l0.07-0.16c0.02-0.04,0.02-0.07,0-0.1
				c-0.02-0.03-0.06-0.06-0.11-0.08l-0.69-0.25l-0.06,0.73c-0.01,0.05,0.01,0.09,0.03,0.13c0.03,0.04,0.06,0.05,0.09,0.05l0.24-0.03
				c0,0.01,0.01,0.02,0.02,0.03c0.01,0.02,0.02,0.03,0.03,0.05c0.01,0.02,0.02,0.03,0.03,0.05c0.01,0.02,0.01,0.03,0.02,0.04
				l-0.86,0.59c-0.02-0.02-0.04-0.05-0.07-0.07c-0.02-0.03-0.04-0.05-0.06-0.08l0.05-0.12c0.03-0.07,0.05-0.14,0.06-0.22
				c0.01-0.07,0.02-0.15,0.03-0.22l0.1-1.04l-1.06-0.33c-0.08-0.03-0.16-0.04-0.24-0.06c-0.08-0.01-0.15-0.02-0.22-0.03
				c-0.02-0.02-0.04-0.04-0.07-0.08c-0.02-0.03-0.04-0.06-0.05-0.09l0.89-0.62c0.02,0.02,0.04,0.05,0.07,0.08
				c0.03,0.03,0.05,0.06,0.06,0.08l-0.08,0.14c-0.01,0.03-0.01,0.05,0,0.08c0.02,0.03,0.05,0.05,0.1,0.07l0.64,0.23l0.06-0.69
				c0-0.04-0.01-0.08-0.03-0.12c-0.02-0.03-0.05-0.05-0.09-0.05l-0.18,0.02c0-0.01-0.01-0.02-0.02-0.03
				c-0.01-0.01-0.02-0.03-0.03-0.04c-0.01-0.02-0.02-0.03-0.03-0.05c-0.01-0.02-0.02-0.03-0.02-0.04l0.8-0.55
				c0.02,0.02,0.04,0.05,0.06,0.08c0.02,0.03,0.04,0.06,0.05,0.08c-0.05,0.07-0.09,0.15-0.11,0.23c-0.02,0.08-0.03,0.16-0.04,0.24
				l-0.08,1.03l1.13,0.35c0.06,0.02,0.12,0.03,0.15,0.04c0.04,0.01,0.07,0.02,0.11,0.02c0.03,0,0.07,0.01,0.11,0.01
				c0.04,0,0.09,0.01,0.15,0.01C25.67,50.25,25.68,50.26,25.69,50.28z"/>
			<path class="st2" d="M26.89,49.57c0.02,0.04,0.03,0.08,0.04,0.12l-1.05,0.65c-0.03-0.03-0.05-0.06-0.07-0.09
				c-0.02-0.03-0.03-0.06-0.05-0.09l0.11-0.14c0.03-0.04,0.05-0.08,0.05-0.14c0.01-0.05-0.01-0.11-0.04-0.16l-0.3-0.5l-0.61-0.99
				c-0.03-0.05-0.08-0.09-0.13-0.1c-0.06-0.02-0.11-0.02-0.17-0.01l-0.16,0.03c-0.02-0.03-0.04-0.06-0.06-0.09
				c-0.02-0.03-0.03-0.06-0.04-0.1l1.03-0.64c0.06,0.07,0.09,0.14,0.12,0.2l-0.12,0.12c-0.04,0.05-0.06,0.09-0.05,0.15
				c0.01,0.05,0.03,0.1,0.05,0.14l0.62,0.99l0.36,0.56c0.02,0.04,0.05,0.06,0.06,0.07c0.02,0.01,0.05,0.01,0.08-0.01l0.26-0.09
				C26.85,49.5,26.87,49.53,26.89,49.57z"/>
			<path class="st2" d="M29.01,48.77l-1.99,0.77c-0.02-0.03-0.03-0.06-0.05-0.1c-0.02-0.03-0.03-0.07-0.04-0.1l0.15-0.11
				c0.04-0.03,0.06-0.07,0.08-0.11c0.02-0.05,0.02-0.1,0-0.16l-0.2-0.56l-0.42-1.1c-0.02-0.06-0.06-0.1-0.11-0.12
				c-0.05-0.02-0.09-0.04-0.14-0.04l-0.19,0c-0.01-0.03-0.02-0.07-0.04-0.1c-0.01-0.03-0.02-0.07-0.02-0.1l1.13-0.44
				c0.02,0.04,0.04,0.08,0.05,0.12c0.01,0.03,0.02,0.07,0.03,0.1l-0.15,0.11c-0.05,0.03-0.07,0.07-0.08,0.11
				c-0.01,0.04,0,0.08,0.02,0.12l0.44,1.14l0.29,0.71l0.55-0.25c0.05-0.03,0.1-0.06,0.14-0.11c0.04-0.05,0.07-0.1,0.09-0.16
				c0.02-0.06,0.04-0.12,0.05-0.18c0.01-0.06,0.01-0.11,0.01-0.16L28.84,48L29.01,48.77z"/>
			<path class="st2" d="M30.32,48.7c0,0.04-0.01,0.08-0.02,0.12l-1.24,0c-0.01-0.04-0.01-0.08-0.01-0.11c0-0.03,0-0.07,0-0.1
				l0.17-0.06c0.04-0.02,0.08-0.04,0.12-0.09c0.03-0.04,0.05-0.09,0.05-0.15l0.01-0.58l0-1.16c0-0.06-0.02-0.12-0.06-0.16
				c-0.04-0.04-0.09-0.08-0.14-0.1l-0.15-0.06c0-0.03,0-0.07,0-0.1c0-0.03,0.01-0.07,0.02-0.11l1.21,0c0.01,0.09,0.01,0.17,0,0.23
				l-0.17,0.04c-0.06,0.02-0.1,0.05-0.12,0.1c-0.02,0.05-0.03,0.1-0.03,0.15l0,1.17l0.01,0.66c0,0.04,0.01,0.08,0.02,0.09
				c0.01,0.02,0.04,0.03,0.07,0.04l0.27,0.06C30.33,48.62,30.32,48.66,30.32,48.7z"/>
			<path class="st2" d="M45.14,48.65c0,0.04-0.01,0.07-0.02,0.1l-1.18,0c-0.01-0.04-0.02-0.07-0.02-0.11c0-0.03,0-0.07,0-0.12
				l0.24-0.08c0.04-0.02,0.08-0.04,0.09-0.07c0.02-0.03,0.03-0.07,0.03-0.11c0-0.04-0.01-0.08-0.02-0.13l-0.15-0.47l-0.92,0
				L43,48.14c-0.01,0.04-0.02,0.08-0.02,0.11c0,0.06,0.02,0.11,0.05,0.14c0.03,0.03,0.07,0.05,0.12,0.06l0.26,0.08
				c0,0.03,0,0.07,0,0.11c0,0.04-0.01,0.08-0.02,0.11l-1.02,0c-0.01-0.03-0.01-0.06-0.02-0.1c0-0.04,0-0.07,0-0.11
				c0.05-0.05,0.1-0.09,0.13-0.13c0.03-0.04,0.06-0.08,0.09-0.15l0.96-2.25l0.52-0.12l0.89,2.36c0.02,0.05,0.05,0.1,0.09,0.15
				c0.04,0.05,0.09,0.09,0.13,0.13C45.14,48.58,45.14,48.62,45.14,48.65z M43.78,46.7l-0.09-0.32h-0.03l-0.1,0.32l-0.26,0.69l0.7,0
				L43.78,46.7z"/>
			<path class="st2" d="M48.55,50.69c-0.01,0.02-0.02,0.03-0.03,0.05c-0.01,0.02-0.03,0.03-0.04,0.05
				c-0.01,0.02-0.02,0.03-0.03,0.03l-1.03-0.64c0.01-0.03,0.02-0.06,0.04-0.09c0.02-0.03,0.03-0.06,0.05-0.08l0.13,0.03
				c0.04,0.01,0.08,0.01,0.12-0.01c0.04-0.02,0.07-0.04,0.11-0.07c0.03-0.03,0.06-0.06,0.09-0.1c0.02-0.04,0.04-0.08,0.06-0.11
				l0.47-1.04l0.14-0.31l-0.02-0.01l-1.72,1.4l-0.46-0.13l0.57-2.3l-0.02-0.01l-0.2,0.25l-0.92,1.07c-0.05,0.05-0.06,0.1-0.03,0.13
				l0.23,0.28c0,0.01-0.01,0.02-0.02,0.04c-0.01,0.01-0.02,0.03-0.03,0.05c-0.01,0.02-0.02,0.03-0.04,0.05
				c-0.01,0.02-0.02,0.03-0.03,0.03l-0.91-0.57c0.01-0.03,0.02-0.06,0.04-0.09c0.02-0.03,0.03-0.06,0.05-0.08l0.16,0.01
				c0.06,0,0.12-0.01,0.19-0.04c0.06-0.03,0.11-0.07,0.15-0.11l1.18-1.29c0.03-0.03,0.05-0.07,0.05-0.11c0-0.04-0.01-0.08-0.04-0.11
				l-0.17-0.2c0-0.01,0.01-0.02,0.02-0.03c0.01-0.02,0.02-0.04,0.03-0.05c0.01-0.02,0.02-0.03,0.04-0.05
				c0.01-0.02,0.02-0.03,0.03-0.04l0.89,0.55l-0.36,1.5l-0.15,0.53l0.03,0.02l0.43-0.37l1.21-0.96l0.85,0.53
				c-0.01,0.03-0.03,0.06-0.04,0.1c-0.02,0.04-0.04,0.07-0.05,0.09l-0.19-0.06c-0.05-0.01-0.1-0.01-0.15,0.01
				c-0.05,0.02-0.09,0.08-0.13,0.16l-0.67,1.68c-0.02,0.04-0.02,0.08-0.01,0.11c0.01,0.03,0.02,0.07,0.04,0.09l0.12,0.18
				C48.57,50.66,48.56,50.68,48.55,50.69z"/>
			<path class="st2" d="M51.69,50.75c-0.01,0-0.03-0.01-0.05-0.02c-0.02-0.01-0.04-0.02-0.05-0.03c-0.02-0.01-0.04-0.02-0.05-0.04
				c-0.02-0.01-0.03-0.02-0.04-0.03c0.05-0.11,0.08-0.22,0.07-0.3c0-0.09-0.05-0.17-0.14-0.24l-0.36-0.28l-0.81,1.12l-0.36,0.52
				c-0.02,0.04-0.04,0.07-0.04,0.09c0,0.02,0.01,0.05,0.03,0.07l0.24,0.26c0,0.01-0.01,0.02-0.03,0.04
				c-0.01,0.02-0.03,0.03-0.04,0.05c-0.02,0.02-0.03,0.04-0.05,0.05c-0.02,0.02-0.03,0.03-0.03,0.04l-1.14-0.83
				c0.01-0.03,0.03-0.06,0.06-0.11c0.03-0.04,0.05-0.08,0.07-0.1l0.26,0.1c0.02,0.01,0.05,0.01,0.07,0.01
				c0.03,0,0.05-0.01,0.08-0.03c0.03-0.01,0.05-0.03,0.08-0.05c0.02-0.02,0.05-0.04,0.06-0.06l0.3-0.39l0.81-1.13l-0.41-0.28
				c-0.08-0.05-0.16-0.06-0.25-0.03c-0.08,0.03-0.17,0.09-0.25,0.17c-0.01,0-0.02-0.01-0.04-0.02c-0.02-0.01-0.04-0.02-0.05-0.04
				c-0.02-0.01-0.03-0.03-0.05-0.04c-0.02-0.02-0.03-0.03-0.04-0.04l0.42-0.59l2.15,1.55L51.69,50.75z"/>
		</g>
		<path class="st1" d="M43.21,35.13l-0.38-0.04c-0.01-0.06-0.02-0.12-0.03-0.19l0.35-0.14c0.02-0.01,0.04-0.03,0.03-0.06l-0.1-0.3
			c-0.01-0.02-0.03-0.03-0.06-0.03l-0.37,0.09c-0.01-0.02-0.02-0.03-0.02-0.05c-0.02-0.04-0.04-0.08-0.07-0.11l0.28-0.26
			c0.02-0.02,0.02-0.05,0.01-0.06l-0.19-0.25c-0.01-0.02-0.04-0.02-0.06-0.01l-0.32,0.22c-0.04-0.04-0.09-0.08-0.14-0.12l0.18-0.34
			c0.01-0.02,0.01-0.05-0.01-0.06l-0.27-0.17c-0.02-0.01-0.05-0.01-0.06,0.02l-0.23,0.32c-0.05-0.02-0.11-0.05-0.17-0.07l0.05-0.38
			c0-0.03-0.01-0.05-0.03-0.05l-0.31-0.07c-0.02-0.01-0.05,0.01-0.05,0.04l-0.11,0.38c-0.06,0-0.12-0.01-0.18-0.01l-0.08-0.38
			c-0.01-0.03-0.03-0.04-0.05-0.04l-0.31,0.04c-0.02,0-0.04,0.03-0.04,0.05l0.03,0.39c-0.06,0.02-0.12,0.03-0.17,0.06l-0.2-0.32
			c-0.01-0.02-0.04-0.03-0.06-0.02l-0.28,0.15c-0.02,0.01-0.03,0.04-0.02,0.06l0.15,0.35c-0.05,0.04-0.1,0.08-0.15,0.12l-0.29-0.23
			c-0.02-0.02-0.05-0.02-0.06,0l-0.21,0.23c-0.02,0.02-0.01,0.04,0.01,0.06l0.26,0.27c-0.04,0.05-0.07,0.11-0.1,0.16L39,34.28
			c-0.03-0.01-0.05,0-0.06,0.02l-0.12,0.29c-0.01,0.02,0,0.05,0.03,0.06l0.32,0.16c-0.02,0.06-0.03,0.13-0.04,0.19l-0.35,0.01
			c-0.03,0-0.05,0.02-0.05,0.04l-0.01,0.32c0,0.02,0.02,0.04,0.04,0.05l0.35,0.04c0.01,0.07,0.02,0.13,0.03,0.2l-0.31,0.13
			c-0.02,0.01-0.04,0.03-0.03,0.06l0.1,0.3c0.01,0.02,0.03,0.03,0.06,0.03l0.33-0.08c0.01,0.03,0.03,0.06,0.04,0.09
			c0.02,0.03,0.04,0.06,0.06,0.1l-0.24,0.23c-0.02,0.02-0.02,0.05-0.01,0.06l0.2,0.25c0.01,0.02,0.04,0.02,0.06,0.01l0.28-0.19
			c0.05,0.05,0.1,0.1,0.16,0.14l-0.15,0.29c-0.01,0.02-0.01,0.05,0.01,0.06l0.27,0.17c0.02,0.01,0.05,0.01,0.06-0.02l0.2-0.27
			c0.06,0.03,0.13,0.05,0.19,0.08l-0.04,0.33c0,0.03,0.01,0.05,0.03,0.05l0.31,0.07c0.02,0,0.05-0.01,0.05-0.04l0.09-0.32
			c0.07,0.01,0.14,0.01,0.21,0l0.07,0.32c0.01,0.03,0.03,0.04,0.05,0.04l0.31-0.04c0.02,0,0.04-0.03,0.04-0.05l-0.02-0.34
			c0.07-0.02,0.13-0.04,0.19-0.07l0.18,0.29c0.01,0.02,0.04,0.03,0.06,0.02l0.28-0.15c0.02-0.01,0.03-0.04,0.02-0.06l-0.14-0.32
			c0.05-0.04,0.11-0.08,0.15-0.13l0.27,0.21c0.02,0.02,0.05,0.02,0.06,0l0.21-0.23c0.02-0.02,0.01-0.04-0.01-0.06l-0.25-0.26
			c0.04-0.05,0.07-0.11,0.1-0.17l0.34,0.11c0.02,0.01,0.05,0,0.06-0.02l0.12-0.29c0.01-0.02,0-0.05-0.03-0.06l-0.33-0.16
			c0.01-0.06,0.03-0.13,0.03-0.19l0.37-0.01c0.03,0,0.05-0.02,0.05-0.04l0.01-0.32C43.25,35.16,43.24,35.14,43.21,35.13z
			 M42.09,34.59l-0.53,0.29c-0.13-0.18-0.33-0.3-0.56-0.3c-0.09,0-0.18,0.02-0.26,0.05l-0.29-0.54
			C41.04,33.83,41.74,34.04,42.09,34.59z M39.77,35.84c-0.26-0.6-0.05-1.3,0.49-1.65l0.3,0.55c-0.16,0.13-0.27,0.32-0.27,0.54
			c0,0.09,0.02,0.17,0.05,0.25L39.77,35.84z M39.87,36.02l0.58-0.31c0.13,0.16,0.32,0.27,0.55,0.27c0.07,0,0.14-0.02,0.21-0.04
			l0.31,0.58C40.92,36.79,40.22,36.57,39.87,36.02z M41.69,36.43l-0.31-0.58c0.18-0.13,0.31-0.33,0.31-0.57
			c0-0.08-0.02-0.15-0.04-0.22l0.54-0.29C42.45,35.38,42.24,36.08,41.69,36.43z"/>
		<g>
			<path class="st1" d="M30.19,40.37c-0.03-0.11,0.04-0.22,0.15-0.24c0.11-0.03,0.22,0.04,0.24,0.15c0.03,0.11-0.04,0.22-0.15,0.24
				C30.33,40.55,30.22,40.48,30.19,40.37z"/>
			<path class="st1" d="M36.55,39.04l-3.17-1.11c-0.01-0.01-0.03-0.01-0.05,0l-3.17,1.11c-0.06,0.02-0.06,0.11,0,0.13l1.48,0.48
				c0.01-0.01,0.02-0.02,0.03-0.02l1.52-0.5c0.02-0.01,0.05-0.01,0.07,0l1.52,0.5c0.04,0.01,0.06,0.05,0.07,0.09l1.68-0.54
				C36.61,39.15,36.61,39.06,36.55,39.04z"/>
			<path class="st1" d="M34.76,40.96h-3.04c-0.06,0-0.11-0.05-0.11-0.11v-1.03c0-0.05,0.03-0.09,0.08-0.11l1.52-0.5
				c0.02-0.01,0.05-0.01,0.07,0l1.52,0.5c0.05,0.02,0.08,0.06,0.08,0.11v1.03C34.88,40.91,34.83,40.96,34.76,40.96z"/>
			<rect x="30.38" y="39.2" class="st1" width="0.03" height="1.02"/>
		</g>
		<g>
			<path class="st1" d="M29.36,38.19c0,0,1.5-1.84,3.91-2.02c2.41-0.18,4.79,2.41,7.28,2.28c2.49-0.13,4.46-1.94,4.46-1.94
				s-1.3,2.34-4.5,2.36c-3.2,0.02-4.76-2.27-7.01-2.19C31.24,36.75,29.36,38.19,29.36,38.19z"/>
			<path class="st1" d="M33.4,35.84c1.37,0,2.69,0.5,3.37,1.11c-0.51-0.93-1.71-1.67-3.34-1.67c-1.76,0-3.07,0.87-3.41,1.92
				C30.63,36.46,31.85,35.84,33.4,35.84z"/>
			<path class="st1" d="M40.74,39.17c1.41-0.11,2.74-0.63,3.4-1.19c-0.61,0.83-1.66,1.53-3.33,1.65c-1.81,0.14-3.07-0.51-3.62-1.34
				C37.85,38.86,39.14,39.28,40.74,39.17z"/>
		</g>
	</g>
	<g>
		<path class="st0" d="M82.1,57.43v-7.28h-2.72v-0.97h6.55v0.97h-2.73v7.28H82.1z"/>
		<path class="st0" d="M89.54,56.69c-0.38,0.32-0.74,0.54-1.08,0.68c-0.35,0.13-0.72,0.2-1.12,0.2c-0.66,0-1.16-0.16-1.52-0.48
			c-0.35-0.32-0.53-0.73-0.53-1.23c0-0.29,0.07-0.56,0.2-0.8c0.13-0.24,0.31-0.44,0.52-0.58c0.22-0.15,0.46-0.26,0.73-0.33
			c0.2-0.05,0.5-0.1,0.9-0.15c0.82-0.1,1.42-0.21,1.81-0.35c0-0.14,0.01-0.23,0.01-0.26c0-0.41-0.1-0.7-0.29-0.87
			c-0.26-0.23-0.64-0.34-1.15-0.34c-0.48,0-0.83,0.08-1.06,0.25c-0.23,0.17-0.4,0.46-0.5,0.89l-0.99-0.14
			c0.09-0.42,0.24-0.77,0.45-1.03c0.21-0.26,0.51-0.46,0.9-0.6c0.39-0.14,0.84-0.21,1.36-0.21c0.51,0,0.93,0.06,1.25,0.18
			c0.32,0.12,0.55,0.27,0.7,0.45c0.15,0.18,0.26,0.41,0.32,0.69c0.03,0.17,0.05,0.48,0.05,0.94v1.35c0,0.94,0.02,1.54,0.06,1.79
			c0.04,0.25,0.13,0.49,0.26,0.72h-1.06C89.64,57.22,89.57,56.97,89.54,56.69z M89.45,54.43c-0.37,0.15-0.92,0.28-1.66,0.38
			c-0.42,0.06-0.71,0.13-0.88,0.2c-0.17,0.08-0.31,0.18-0.4,0.33s-0.14,0.31-0.14,0.48c0,0.27,0.1,0.5,0.31,0.68
			c0.2,0.18,0.5,0.27,0.9,0.27c0.39,0,0.74-0.09,1.04-0.26c0.3-0.17,0.53-0.4,0.67-0.7c0.11-0.23,0.16-0.57,0.16-1.01V54.43z"/>
		<path class="st0" d="M92.03,57.43v-8.26h1.01v8.26H92.03z"/>
		<path class="st0" d="M98.71,55.5l1.05,0.13c-0.17,0.61-0.47,1.09-0.92,1.43c-0.45,0.34-1.02,0.51-1.71,0.51
			c-0.88,0-1.57-0.27-2.08-0.81c-0.51-0.54-0.77-1.29-0.77-2.27c0-1.01,0.26-1.79,0.78-2.34c0.52-0.56,1.19-0.83,2.02-0.83
			c0.8,0,1.45,0.27,1.96,0.82c0.51,0.54,0.76,1.31,0.76,2.3c0,0.06,0,0.15-0.01,0.27h-4.46c0.04,0.66,0.22,1.16,0.56,1.51
			c0.33,0.35,0.75,0.52,1.25,0.52c0.37,0,0.69-0.1,0.95-0.29C98.35,56.24,98.56,55.93,98.71,55.5z M95.38,53.86h3.34
			c-0.05-0.5-0.17-0.88-0.38-1.13c-0.32-0.39-0.74-0.59-1.26-0.59c-0.47,0-0.86,0.16-1.17,0.47C95.59,52.92,95.41,53.34,95.38,53.86
			z"/>
		<path class="st0" d="M101.03,57.43v-5.98h0.91v0.85c0.44-0.66,1.07-0.99,1.9-0.99c0.36,0,0.69,0.06,0.99,0.19
			c0.3,0.13,0.53,0.3,0.68,0.51c0.15,0.21,0.26,0.46,0.32,0.75c0.04,0.19,0.06,0.52,0.06,0.99v3.68h-1.01v-3.64
			c0-0.41-0.04-0.72-0.12-0.93c-0.08-0.2-0.22-0.37-0.42-0.49c-0.2-0.12-0.44-0.18-0.71-0.18c-0.43,0-0.8,0.14-1.12,0.41
			c-0.31,0.27-0.47,0.79-0.47,1.56v3.27H101.03z"/>
		<path class="st0" d="M109.66,56.52l0.15,0.9c-0.29,0.06-0.54,0.09-0.77,0.09c-0.37,0-0.65-0.06-0.86-0.17
			c-0.2-0.12-0.35-0.27-0.43-0.46c-0.08-0.19-0.12-0.59-0.12-1.2v-3.44h-0.74v-0.79h0.74v-1.48l1.01-0.61v2.09h1.02v0.79h-1.02v3.5
			c0,0.29,0.02,0.47,0.05,0.56c0.04,0.08,0.09,0.15,0.17,0.2c0.08,0.05,0.2,0.07,0.35,0.07C109.33,56.56,109.48,56.55,109.66,56.52z
			"/>
		<path class="st0" d="M110.25,55.64l1-0.16c0.06,0.4,0.21,0.71,0.47,0.92c0.26,0.21,0.62,0.32,1.08,0.32
			c0.47,0,0.81-0.09,1.04-0.28c0.23-0.19,0.34-0.41,0.34-0.67c0-0.23-0.1-0.41-0.3-0.54c-0.14-0.09-0.48-0.2-1.04-0.34
			c-0.74-0.19-1.26-0.35-1.55-0.49c-0.29-0.14-0.51-0.33-0.65-0.57c-0.15-0.24-0.22-0.51-0.22-0.8c0-0.27,0.06-0.51,0.18-0.74
			c0.12-0.23,0.29-0.42,0.5-0.57c0.16-0.12,0.37-0.21,0.64-0.3c0.27-0.08,0.56-0.12,0.88-0.12c0.47,0,0.88,0.07,1.24,0.2
			c0.35,0.14,0.62,0.32,0.79,0.55c0.17,0.23,0.29,0.54,0.35,0.93L114,53.12c-0.05-0.31-0.18-0.55-0.39-0.72
			c-0.22-0.17-0.52-0.26-0.92-0.26c-0.47,0-0.8,0.08-1,0.23c-0.2,0.15-0.3,0.33-0.3,0.54c0,0.13,0.04,0.25,0.12,0.35
			c0.08,0.11,0.21,0.2,0.39,0.27c0.1,0.04,0.4,0.12,0.9,0.26c0.72,0.19,1.22,0.35,1.5,0.47c0.28,0.12,0.51,0.3,0.67,0.53
			c0.16,0.23,0.24,0.52,0.24,0.87c0,0.34-0.1,0.66-0.3,0.95c-0.2,0.3-0.48,0.53-0.85,0.69c-0.37,0.16-0.79,0.25-1.26,0.25
			c-0.78,0-1.37-0.16-1.78-0.48C110.62,56.76,110.36,56.28,110.25,55.64z"/>
		<path class="st0" d="M119.22,55.64l1-0.16c0.06,0.4,0.21,0.71,0.47,0.92c0.26,0.21,0.62,0.32,1.08,0.32
			c0.47,0,0.81-0.09,1.04-0.28c0.23-0.19,0.34-0.41,0.34-0.67c0-0.23-0.1-0.41-0.3-0.54c-0.14-0.09-0.48-0.2-1.04-0.34
			c-0.74-0.19-1.26-0.35-1.55-0.49c-0.29-0.14-0.51-0.33-0.65-0.57c-0.15-0.24-0.22-0.51-0.22-0.8c0-0.27,0.06-0.51,0.18-0.74
			c0.12-0.23,0.29-0.42,0.5-0.57c0.16-0.12,0.37-0.21,0.64-0.3c0.27-0.08,0.56-0.12,0.88-0.12c0.47,0,0.88,0.07,1.24,0.2
			c0.35,0.14,0.62,0.32,0.79,0.55c0.17,0.23,0.29,0.54,0.35,0.93l-0.99,0.14c-0.05-0.31-0.18-0.55-0.39-0.72
			c-0.22-0.17-0.52-0.26-0.92-0.26c-0.47,0-0.8,0.08-1,0.23c-0.2,0.15-0.3,0.33-0.3,0.54c0,0.13,0.04,0.25,0.12,0.35
			c0.08,0.11,0.21,0.2,0.39,0.27c0.1,0.04,0.4,0.12,0.9,0.26c0.72,0.19,1.22,0.35,1.5,0.47c0.28,0.12,0.51,0.3,0.67,0.53
			c0.16,0.23,0.24,0.52,0.24,0.87c0,0.34-0.1,0.66-0.3,0.95c-0.2,0.3-0.48,0.53-0.85,0.69c-0.37,0.16-0.79,0.25-1.26,0.25
			c-0.78,0-1.37-0.16-1.78-0.48C119.59,56.76,119.33,56.28,119.22,55.64z"/>
		<path class="st0" d="M129.32,57.43v-0.88c-0.47,0.68-1.1,1.01-1.9,1.01c-0.35,0-0.68-0.07-0.99-0.2
			c-0.31-0.14-0.53-0.31-0.68-0.51c-0.15-0.2-0.25-0.46-0.31-0.75c-0.04-0.2-0.06-0.51-0.06-0.95v-3.71h1.01v3.32
			c0,0.53,0.02,0.89,0.06,1.07c0.06,0.27,0.2,0.48,0.41,0.63c0.21,0.15,0.46,0.23,0.77,0.23s0.59-0.08,0.86-0.23
			c0.27-0.16,0.46-0.37,0.57-0.64c0.11-0.27,0.17-0.66,0.17-1.17v-3.21h1.01v5.98H129.32z"/>
		<path class="st0" d="M131.81,59.72v-8.28h0.92v0.78c0.22-0.3,0.46-0.53,0.74-0.68c0.27-0.15,0.61-0.23,1-0.23
			c0.51,0,0.96,0.13,1.35,0.39c0.39,0.26,0.69,0.63,0.88,1.11c0.2,0.48,0.3,1,0.3,1.57c0,0.61-0.11,1.16-0.33,1.65
			c-0.22,0.49-0.54,0.87-0.96,1.13c-0.42,0.26-0.86,0.39-1.32,0.39c-0.34,0-0.64-0.07-0.91-0.21c-0.27-0.14-0.49-0.32-0.66-0.54
			v2.91H131.81z M132.73,54.47c0,0.77,0.16,1.34,0.47,1.71c0.31,0.37,0.69,0.55,1.13,0.55c0.45,0,0.84-0.19,1.16-0.57
			c0.32-0.38,0.48-0.97,0.48-1.77c0-0.76-0.16-1.33-0.47-1.71c-0.31-0.38-0.69-0.57-1.12-0.57c-0.43,0-0.81,0.2-1.15,0.61
			C132.9,53.11,132.73,53.7,132.73,54.47z"/>
		<path class="st0" d="M138.23,59.72v-8.28h0.92v0.78c0.22-0.3,0.46-0.53,0.74-0.68c0.27-0.15,0.61-0.23,1-0.23
			c0.51,0,0.96,0.13,1.35,0.39c0.39,0.26,0.69,0.63,0.88,1.11c0.2,0.48,0.3,1,0.3,1.57c0,0.61-0.11,1.16-0.33,1.65
			c-0.22,0.49-0.54,0.87-0.96,1.13c-0.42,0.26-0.86,0.39-1.32,0.39c-0.34,0-0.64-0.07-0.91-0.21c-0.27-0.14-0.49-0.32-0.66-0.54
			v2.91H138.23z M139.15,54.47c0,0.77,0.16,1.34,0.47,1.71c0.31,0.37,0.69,0.55,1.13,0.55c0.45,0,0.84-0.19,1.16-0.57
			c0.32-0.38,0.48-0.97,0.48-1.77c0-0.76-0.16-1.33-0.47-1.71c-0.31-0.38-0.69-0.57-1.12-0.57c-0.43,0-0.81,0.2-1.15,0.61
			C139.31,53.11,139.15,53.7,139.15,54.47z"/>
		<path class="st0" d="M144.62,57.43v-8.26h1.01v8.26H144.62z"/>
		<path class="st0" d="M147.16,59.73l-0.11-0.95c0.22,0.06,0.41,0.09,0.58,0.09c0.23,0,0.41-0.04,0.54-0.11
			c0.14-0.08,0.25-0.18,0.33-0.32c0.06-0.1,0.17-0.35,0.31-0.76c0.02-0.06,0.05-0.14,0.09-0.25l-2.27-5.99h1.09l1.25,3.46
			c0.16,0.44,0.31,0.9,0.43,1.39c0.12-0.47,0.26-0.92,0.42-1.36l1.28-3.49h1.01l-2.28,6.08c-0.24,0.66-0.43,1.11-0.57,1.36
			c-0.18,0.33-0.39,0.58-0.62,0.74c-0.23,0.16-0.51,0.23-0.83,0.23C147.62,59.86,147.4,59.82,147.16,59.73z"/>
		<path class="st0" d="M155.78,55.64l1-0.16c0.06,0.4,0.21,0.71,0.47,0.92c0.26,0.21,0.62,0.32,1.08,0.32
			c0.47,0,0.81-0.09,1.04-0.28c0.23-0.19,0.34-0.41,0.34-0.67c0-0.23-0.1-0.41-0.3-0.54c-0.14-0.09-0.48-0.2-1.04-0.34
			c-0.74-0.19-1.26-0.35-1.55-0.49c-0.29-0.14-0.51-0.33-0.65-0.57c-0.15-0.24-0.22-0.51-0.22-0.8c0-0.27,0.06-0.51,0.18-0.74
			c0.12-0.23,0.29-0.42,0.5-0.57c0.16-0.12,0.37-0.21,0.64-0.3c0.27-0.08,0.56-0.12,0.88-0.12c0.47,0,0.88,0.07,1.24,0.2
			c0.35,0.14,0.62,0.32,0.79,0.55c0.17,0.23,0.29,0.54,0.35,0.93l-0.99,0.14c-0.05-0.31-0.18-0.55-0.39-0.72
			c-0.22-0.17-0.52-0.26-0.92-0.26c-0.47,0-0.8,0.08-1,0.23c-0.2,0.15-0.3,0.33-0.3,0.54c0,0.13,0.04,0.25,0.12,0.35
			c0.08,0.11,0.21,0.2,0.39,0.27c0.1,0.04,0.4,0.12,0.9,0.26c0.72,0.19,1.22,0.35,1.5,0.47c0.28,0.12,0.51,0.3,0.67,0.53
			c0.16,0.23,0.24,0.52,0.24,0.87c0,0.34-0.1,0.66-0.3,0.95c-0.2,0.3-0.48,0.53-0.85,0.69c-0.37,0.16-0.79,0.25-1.26,0.25
			c-0.78,0-1.37-0.16-1.78-0.48C156.15,56.76,155.89,56.28,155.78,55.64z"/>
		<path class="st0" d="M161.91,59.73l-0.11-0.95c0.22,0.06,0.41,0.09,0.58,0.09c0.23,0,0.41-0.04,0.54-0.11
			c0.14-0.08,0.25-0.18,0.33-0.32c0.06-0.1,0.17-0.35,0.31-0.76c0.02-0.06,0.05-0.14,0.09-0.25l-2.27-5.99h1.09l1.25,3.46
			c0.16,0.44,0.31,0.9,0.43,1.39c0.12-0.47,0.26-0.92,0.42-1.36l1.28-3.49h1.01l-2.28,6.08c-0.24,0.66-0.43,1.11-0.57,1.36
			c-0.18,0.33-0.39,0.58-0.62,0.74c-0.23,0.16-0.51,0.23-0.83,0.23C162.37,59.86,162.15,59.82,161.91,59.73z"/>
		<path class="st0" d="M167.32,55.64l1-0.16c0.06,0.4,0.21,0.71,0.47,0.92c0.26,0.21,0.62,0.32,1.08,0.32
			c0.47,0,0.81-0.09,1.04-0.28c0.23-0.19,0.34-0.41,0.34-0.67c0-0.23-0.1-0.41-0.3-0.54c-0.14-0.09-0.48-0.2-1.04-0.34
			c-0.74-0.19-1.26-0.35-1.55-0.49c-0.29-0.14-0.51-0.33-0.65-0.57c-0.15-0.24-0.22-0.51-0.22-0.8c0-0.27,0.06-0.51,0.18-0.74
			c0.12-0.23,0.29-0.42,0.5-0.57c0.16-0.12,0.37-0.21,0.64-0.3c0.27-0.08,0.56-0.12,0.88-0.12c0.47,0,0.88,0.07,1.24,0.2
			c0.35,0.14,0.62,0.32,0.79,0.55c0.17,0.23,0.29,0.54,0.35,0.93l-0.99,0.14c-0.05-0.31-0.18-0.55-0.39-0.72
			c-0.22-0.17-0.52-0.26-0.92-0.26c-0.47,0-0.8,0.08-1,0.23c-0.2,0.15-0.3,0.33-0.3,0.54c0,0.13,0.04,0.25,0.12,0.35
			c0.08,0.11,0.21,0.2,0.39,0.27c0.1,0.04,0.4,0.12,0.9,0.26c0.72,0.19,1.22,0.35,1.5,0.47c0.28,0.12,0.51,0.3,0.67,0.53
			c0.16,0.23,0.24,0.52,0.24,0.87c0,0.34-0.1,0.66-0.3,0.95c-0.2,0.3-0.48,0.53-0.85,0.69c-0.37,0.16-0.79,0.25-1.26,0.25
			c-0.78,0-1.37-0.16-1.78-0.48C167.69,56.76,167.43,56.28,167.32,55.64z"/>
		<path class="st0" d="M175.7,56.52l0.15,0.9c-0.29,0.06-0.54,0.09-0.77,0.09c-0.37,0-0.65-0.06-0.86-0.17
			c-0.2-0.12-0.35-0.27-0.43-0.46c-0.08-0.19-0.12-0.59-0.12-1.2v-3.44h-0.74v-0.79h0.74v-1.48l1.01-0.61v2.09h1.02v0.79h-1.02v3.5
			c0,0.29,0.02,0.47,0.05,0.56c0.04,0.08,0.09,0.15,0.17,0.2c0.08,0.05,0.2,0.07,0.35,0.07C175.37,56.56,175.52,56.55,175.7,56.52z"
			/>
		<path class="st0" d="M180.79,55.5l1.05,0.13c-0.17,0.61-0.47,1.09-0.92,1.43c-0.45,0.34-1.02,0.51-1.71,0.51
			c-0.88,0-1.57-0.27-2.08-0.81c-0.51-0.54-0.77-1.29-0.77-2.27c0-1.01,0.26-1.79,0.78-2.34c0.52-0.56,1.19-0.83,2.02-0.83
			c0.8,0,1.45,0.27,1.96,0.82c0.51,0.54,0.76,1.31,0.76,2.3c0,0.06,0,0.15-0.01,0.27h-4.46c0.04,0.66,0.22,1.16,0.56,1.51
			c0.33,0.35,0.75,0.52,1.25,0.52c0.37,0,0.69-0.1,0.95-0.29C180.43,56.24,180.64,55.93,180.79,55.5z M177.46,53.86h3.34
			c-0.05-0.5-0.17-0.88-0.38-1.13c-0.32-0.39-0.74-0.59-1.26-0.59c-0.47,0-0.86,0.16-1.17,0.47
			C177.67,52.92,177.5,53.34,177.46,53.86z"/>
		<path class="st0" d="M183.11,57.43v-5.98h0.91v0.84c0.19-0.29,0.44-0.53,0.75-0.71c0.31-0.18,0.67-0.27,1.06-0.27
			c0.44,0,0.81,0.09,1.09,0.28c0.28,0.18,0.48,0.44,0.6,0.77c0.47-0.7,1.09-1.05,1.85-1.05c0.59,0,1.05,0.16,1.37,0.49
			c0.32,0.33,0.48,0.83,0.48,1.52v4.11h-1.01v-3.77c0-0.41-0.03-0.7-0.1-0.88c-0.07-0.18-0.19-0.32-0.36-0.43
			c-0.17-0.11-0.38-0.16-0.61-0.16c-0.42,0-0.77,0.14-1.05,0.42c-0.28,0.28-0.42,0.73-0.42,1.34v3.48h-1.01v-3.89
			c0-0.45-0.08-0.79-0.25-1.01c-0.17-0.23-0.44-0.34-0.81-0.34c-0.29,0-0.55,0.08-0.79,0.23c-0.24,0.15-0.42,0.37-0.53,0.66
			c-0.11,0.29-0.16,0.71-0.16,1.25v3.1H183.11z"/>
		<path class="st0" d="M196.17,57.43v-5.19h-0.9v-0.79h0.9v-0.64c0-0.4,0.04-0.7,0.11-0.9c0.1-0.26,0.27-0.48,0.52-0.64
			c0.25-0.16,0.59-0.25,1.03-0.25c0.29,0,0.6,0.03,0.95,0.1l-0.15,0.88c-0.21-0.04-0.41-0.06-0.6-0.06c-0.31,0-0.53,0.07-0.65,0.2
			c-0.13,0.13-0.19,0.38-0.19,0.74v0.55h1.17v0.79h-1.17v5.19H196.17z"/>
		<path class="st0" d="M198.76,54.44c0-1.11,0.31-1.93,0.92-2.46c0.51-0.44,1.14-0.66,1.88-0.66c0.82,0,1.49,0.27,2.02,0.81
			c0.52,0.54,0.78,1.28,0.78,2.23c0,0.77-0.12,1.38-0.35,1.82c-0.23,0.44-0.57,0.78-1.01,1.03c-0.44,0.24-0.92,0.37-1.44,0.37
			c-0.84,0-1.51-0.27-2.03-0.81C199.02,56.22,198.76,55.45,198.76,54.44z M199.8,54.44c0,0.77,0.17,1.34,0.5,1.72
			c0.33,0.38,0.76,0.57,1.26,0.57c0.5,0,0.92-0.19,1.26-0.57c0.33-0.38,0.5-0.97,0.5-1.75c0-0.74-0.17-1.3-0.5-1.68
			c-0.34-0.38-0.75-0.57-1.25-0.57c-0.51,0-0.93,0.19-1.26,0.57C199.97,53.1,199.8,53.67,199.8,54.44z"/>
		<path class="st0" d="M205.54,57.43v-5.98h0.91v0.91c0.23-0.42,0.45-0.7,0.64-0.84c0.2-0.14,0.41-0.2,0.65-0.2
			c0.34,0,0.69,0.11,1.04,0.33l-0.35,0.94c-0.25-0.15-0.5-0.22-0.74-0.22c-0.22,0-0.42,0.07-0.6,0.2c-0.18,0.13-0.3,0.32-0.38,0.55
			c-0.11,0.36-0.17,0.76-0.17,1.18v3.13H205.54z"/>
		<path class="st0" d="M212.61,50.34v-1.17h1.01v1.17H212.61z M212.61,57.43v-5.98h1.01v5.98H212.61z"/>
		<path class="st0" d="M215.16,57.43v-5.98h0.91v0.85c0.44-0.66,1.07-0.99,1.9-0.99c0.36,0,0.69,0.06,0.99,0.19
			c0.3,0.13,0.53,0.3,0.68,0.51c0.15,0.21,0.26,0.46,0.32,0.75c0.04,0.19,0.06,0.52,0.06,0.99v3.68h-1.01v-3.64
			c0-0.41-0.04-0.72-0.12-0.93c-0.08-0.2-0.22-0.37-0.42-0.49c-0.2-0.12-0.44-0.18-0.71-0.18c-0.43,0-0.8,0.14-1.12,0.41
			c-0.31,0.27-0.47,0.79-0.47,1.56v3.27H215.16z"/>
		<path class="st0" d="M225.46,57.43v-0.75c-0.38,0.59-0.94,0.89-1.67,0.89c-0.48,0-0.92-0.13-1.32-0.39
			c-0.4-0.26-0.71-0.63-0.93-1.1c-0.22-0.47-0.33-1.01-0.33-1.63c0-0.6,0.1-1.14,0.3-1.63c0.2-0.49,0.5-0.86,0.9-1.12
			c0.4-0.26,0.84-0.39,1.34-0.39c0.36,0,0.68,0.08,0.96,0.23c0.28,0.15,0.51,0.35,0.69,0.59v-2.96h1.01v8.26H225.46z M222.26,54.44
			c0,0.77,0.16,1.34,0.48,1.72c0.32,0.38,0.7,0.57,1.14,0.57c0.44,0,0.82-0.18,1.13-0.54c0.31-0.36,0.46-0.92,0.46-1.66
			c0-0.82-0.16-1.42-0.47-1.8c-0.32-0.38-0.7-0.57-1.17-0.57c-0.45,0-0.83,0.18-1.13,0.55C222.41,53.07,222.26,53.65,222.26,54.44z"
			/>
		<path class="st0" d="M231.92,57.43v-0.88c-0.47,0.68-1.1,1.01-1.9,1.01c-0.35,0-0.68-0.07-0.99-0.2
			c-0.31-0.14-0.53-0.31-0.68-0.51c-0.15-0.2-0.25-0.46-0.31-0.75c-0.04-0.2-0.06-0.51-0.06-0.95v-3.71h1.01v3.32
			c0,0.53,0.02,0.89,0.06,1.07c0.06,0.27,0.2,0.48,0.41,0.63c0.21,0.15,0.46,0.23,0.77,0.23s0.59-0.08,0.86-0.23
			c0.27-0.16,0.46-0.37,0.57-0.64c0.11-0.27,0.17-0.66,0.17-1.17v-3.21h1.01v5.98H231.92z"/>
		<path class="st0" d="M234.01,55.64l1-0.16c0.06,0.4,0.21,0.71,0.47,0.92c0.26,0.21,0.62,0.32,1.08,0.32
			c0.47,0,0.81-0.09,1.04-0.28c0.23-0.19,0.34-0.41,0.34-0.67c0-0.23-0.1-0.41-0.3-0.54c-0.14-0.09-0.48-0.2-1.04-0.34
			c-0.74-0.19-1.26-0.35-1.55-0.49c-0.29-0.14-0.51-0.33-0.65-0.57c-0.15-0.24-0.22-0.51-0.22-0.8c0-0.27,0.06-0.51,0.18-0.74
			c0.12-0.23,0.29-0.42,0.5-0.57c0.16-0.12,0.37-0.21,0.64-0.3c0.27-0.08,0.56-0.12,0.88-0.12c0.47,0,0.88,0.07,1.24,0.2
			c0.35,0.14,0.62,0.32,0.79,0.55c0.17,0.23,0.29,0.54,0.35,0.93l-0.99,0.14c-0.04-0.31-0.18-0.55-0.39-0.72
			c-0.22-0.17-0.52-0.26-0.92-0.26c-0.47,0-0.8,0.08-1,0.23c-0.2,0.15-0.3,0.33-0.3,0.54c0,0.13,0.04,0.25,0.12,0.35
			c0.08,0.11,0.21,0.2,0.39,0.27c0.1,0.04,0.4,0.12,0.9,0.26c0.72,0.19,1.22,0.35,1.5,0.47c0.28,0.12,0.51,0.3,0.67,0.53
			c0.16,0.23,0.24,0.52,0.24,0.87c0,0.34-0.1,0.66-0.3,0.95c-0.2,0.3-0.48,0.53-0.85,0.69c-0.37,0.16-0.79,0.25-1.26,0.25
			c-0.78,0-1.37-0.16-1.78-0.48C234.38,56.76,234.12,56.28,234.01,55.64z"/>
		<path class="st0" d="M242.4,56.52l0.15,0.9c-0.29,0.06-0.54,0.09-0.77,0.09c-0.37,0-0.65-0.06-0.86-0.17
			c-0.2-0.12-0.35-0.27-0.43-0.46s-0.12-0.59-0.12-1.2v-3.44h-0.74v-0.79h0.74v-1.48l1.01-0.61v2.09h1.02v0.79h-1.02v3.5
			c0,0.29,0.02,0.47,0.05,0.56c0.04,0.08,0.09,0.15,0.17,0.2c0.08,0.05,0.2,0.07,0.35,0.07C242.06,56.56,242.21,56.55,242.4,56.52z"
			/>
		<path class="st0" d="M243.38,57.43v-5.98h0.91v0.91c0.23-0.42,0.45-0.7,0.64-0.84c0.2-0.14,0.41-0.2,0.65-0.2
			c0.34,0,0.69,0.11,1.04,0.33l-0.35,0.94c-0.25-0.15-0.5-0.22-0.74-0.22c-0.22,0-0.42,0.07-0.6,0.2s-0.3,0.32-0.38,0.55
			c-0.11,0.36-0.17,0.76-0.17,1.18v3.13H243.38z"/>
		<path class="st0" d="M247.24,50.34v-1.17h1.01v1.17H247.24z M247.24,57.43v-5.98h1.01v5.98H247.24z"/>
		<path class="st0" d="M253.7,56.69c-0.38,0.32-0.74,0.54-1.08,0.68c-0.35,0.13-0.72,0.2-1.12,0.2c-0.66,0-1.16-0.16-1.52-0.48
			c-0.35-0.32-0.53-0.73-0.53-1.23c0-0.29,0.07-0.56,0.2-0.8s0.31-0.44,0.52-0.58c0.22-0.15,0.46-0.26,0.73-0.33
			c0.2-0.05,0.5-0.1,0.9-0.15c0.82-0.1,1.42-0.21,1.81-0.35c0-0.14,0.01-0.23,0.01-0.26c0-0.41-0.1-0.7-0.29-0.87
			c-0.26-0.23-0.64-0.34-1.15-0.34c-0.48,0-0.83,0.08-1.06,0.25c-0.23,0.17-0.4,0.46-0.5,0.89l-0.99-0.14
			c0.09-0.42,0.24-0.77,0.45-1.03s0.51-0.46,0.9-0.6c0.39-0.14,0.84-0.21,1.36-0.21c0.51,0,0.93,0.06,1.25,0.18
			c0.32,0.12,0.55,0.27,0.7,0.45c0.15,0.18,0.26,0.41,0.32,0.69c0.03,0.17,0.05,0.48,0.05,0.94v1.35c0,0.94,0.02,1.54,0.06,1.79
			c0.04,0.25,0.13,0.49,0.26,0.72h-1.06C253.8,57.22,253.73,56.97,253.7,56.69z M253.61,54.43c-0.37,0.15-0.92,0.28-1.66,0.38
			c-0.42,0.06-0.71,0.13-0.88,0.2c-0.17,0.08-0.31,0.18-0.4,0.33s-0.14,0.31-0.14,0.48c0,0.27,0.1,0.5,0.31,0.68
			c0.2,0.18,0.5,0.27,0.9,0.27c0.39,0,0.74-0.09,1.04-0.26c0.3-0.17,0.53-0.4,0.67-0.7c0.11-0.23,0.16-0.57,0.16-1.01V54.43z"/>
		<path class="st0" d="M256.19,57.43v-8.26h1.01v8.26H256.19z"/>
		<path class="st0" d="M265.86,57.43v-0.75c-0.38,0.59-0.94,0.89-1.67,0.89c-0.48,0-0.92-0.13-1.32-0.39
			c-0.4-0.26-0.71-0.63-0.93-1.1c-0.22-0.47-0.33-1.01-0.33-1.63c0-0.6,0.1-1.14,0.3-1.63c0.2-0.49,0.5-0.86,0.9-1.12
			c0.4-0.26,0.84-0.39,1.34-0.39c0.36,0,0.68,0.08,0.96,0.23c0.28,0.15,0.51,0.35,0.69,0.59v-2.96h1.01v8.26H265.86z M262.65,54.44
			c0,0.77,0.16,1.34,0.48,1.72c0.32,0.38,0.7,0.57,1.14,0.57c0.44,0,0.82-0.18,1.13-0.54c0.31-0.36,0.46-0.92,0.46-1.66
			c0-0.82-0.16-1.42-0.47-1.8c-0.32-0.38-0.7-0.57-1.17-0.57c-0.45,0-0.83,0.18-1.13,0.55C262.81,53.07,262.65,53.65,262.65,54.44z"
			/>
		<path class="st0" d="M268.4,50.34v-1.17h1.01v1.17H268.4z M268.4,57.43v-5.98h1.01v5.98H268.4z"/>
		<path class="st0" d="M270.77,57.92l0.99,0.15c0.04,0.3,0.16,0.53,0.34,0.66c0.25,0.19,0.6,0.28,1.03,0.28
			c0.47,0,0.83-0.09,1.09-0.28c0.26-0.19,0.43-0.45,0.52-0.79c0.05-0.21,0.08-0.64,0.07-1.3c-0.44,0.52-1,0.78-1.66,0.78
			c-0.82,0-1.46-0.3-1.91-0.89c-0.45-0.59-0.68-1.31-0.68-2.14c0-0.57,0.1-1.1,0.31-1.58c0.21-0.48,0.51-0.86,0.9-1.12
			c0.39-0.26,0.85-0.39,1.38-0.39c0.71,0,1.29,0.29,1.75,0.86v-0.72h0.94v5.17c0,0.93-0.1,1.59-0.28,1.98
			c-0.19,0.39-0.49,0.7-0.9,0.92c-0.41,0.23-0.92,0.34-1.52,0.34c-0.71,0-1.29-0.16-1.73-0.48
			C270.97,59.05,270.76,58.57,270.77,57.92z M271.61,54.33c0,0.78,0.16,1.36,0.47,1.72c0.31,0.36,0.7,0.54,1.17,0.54
			c0.47,0,0.86-0.18,1.17-0.54c0.32-0.36,0.47-0.92,0.47-1.69c0-0.73-0.16-1.28-0.49-1.66c-0.32-0.37-0.72-0.56-1.17-0.56
			c-0.45,0-0.83,0.18-1.15,0.55C271.77,53.07,271.61,53.61,271.61,54.33z"/>
		<path class="st0" d="M277.38,50.34v-1.17h1.01v1.17H277.38z M277.38,57.43v-5.98h1.01v5.98H277.38z"/>
		<path class="st0" d="M282.15,56.52l0.15,0.9c-0.29,0.06-0.54,0.09-0.77,0.09c-0.37,0-0.65-0.06-0.86-0.17
			c-0.2-0.12-0.35-0.27-0.43-0.46s-0.12-0.59-0.12-1.2v-3.44h-0.74v-0.79h0.74v-1.48l1.01-0.61v2.09h1.02v0.79h-1.02v3.5
			c0,0.29,0.02,0.47,0.05,0.56c0.04,0.08,0.09,0.15,0.17,0.2c0.08,0.05,0.2,0.07,0.35,0.07C281.82,56.56,281.97,56.55,282.15,56.52z
			"/>
		<path class="st0" d="M287.05,56.69c-0.38,0.32-0.74,0.54-1.08,0.68c-0.35,0.13-0.72,0.2-1.12,0.2c-0.66,0-1.16-0.16-1.52-0.48
			c-0.35-0.32-0.53-0.73-0.53-1.23c0-0.29,0.07-0.56,0.2-0.8c0.13-0.24,0.31-0.44,0.52-0.58c0.22-0.15,0.46-0.26,0.73-0.33
			c0.2-0.05,0.5-0.1,0.9-0.15c0.82-0.1,1.42-0.21,1.81-0.35c0-0.14,0.01-0.23,0.01-0.26c0-0.41-0.1-0.7-0.29-0.87
			c-0.26-0.23-0.64-0.34-1.15-0.34c-0.48,0-0.83,0.08-1.06,0.25c-0.23,0.17-0.4,0.46-0.5,0.89l-0.99-0.14
			c0.09-0.42,0.24-0.77,0.45-1.03c0.21-0.26,0.51-0.46,0.9-0.6c0.39-0.14,0.84-0.21,1.36-0.21c0.51,0,0.93,0.06,1.25,0.18
			s0.55,0.27,0.7,0.45c0.15,0.18,0.26,0.41,0.32,0.69c0.03,0.17,0.05,0.48,0.05,0.94v1.35c0,0.94,0.02,1.54,0.06,1.79
			s0.13,0.49,0.26,0.72h-1.06C287.15,57.22,287.08,56.97,287.05,56.69z M286.96,54.43c-0.37,0.15-0.92,0.28-1.66,0.38
			c-0.42,0.06-0.71,0.13-0.88,0.2c-0.17,0.08-0.31,0.18-0.4,0.33s-0.14,0.31-0.14,0.48c0,0.27,0.1,0.5,0.31,0.68
			c0.2,0.18,0.5,0.27,0.9,0.27c0.39,0,0.74-0.09,1.04-0.26c0.3-0.17,0.53-0.4,0.67-0.7c0.11-0.23,0.16-0.57,0.16-1.01V54.43z"/>
		<path class="st0" d="M289.54,57.43v-8.26h1.01v8.26H289.54z"/>
		<path class="st0" d="M292.13,50.34v-1.17h1.01v1.17H292.13z M292.13,57.43v-5.98h1.01v5.98H292.13z"/>
		<path class="st0" d="M294.15,57.43v-0.82l3.81-4.37c-0.43,0.02-0.81,0.03-1.14,0.03h-2.44v-0.82h4.89v0.67l-3.24,3.8l-0.63,0.69
			c0.45-0.03,0.88-0.05,1.28-0.05h2.77v0.87H294.15z"/>
		<path class="st0" d="M304.36,56.69c-0.38,0.32-0.74,0.54-1.08,0.68c-0.35,0.13-0.72,0.2-1.12,0.2c-0.66,0-1.16-0.16-1.52-0.48
			c-0.35-0.32-0.53-0.73-0.53-1.23c0-0.29,0.07-0.56,0.2-0.8c0.13-0.24,0.31-0.44,0.52-0.58c0.22-0.15,0.46-0.26,0.73-0.33
			c0.2-0.05,0.5-0.1,0.9-0.15c0.82-0.1,1.42-0.21,1.81-0.35c0-0.14,0.01-0.23,0.01-0.26c0-0.41-0.1-0.7-0.29-0.87
			c-0.26-0.23-0.64-0.34-1.15-0.34c-0.48,0-0.83,0.08-1.06,0.25c-0.23,0.17-0.4,0.46-0.5,0.89l-0.99-0.14
			c0.09-0.42,0.24-0.77,0.45-1.03c0.21-0.26,0.51-0.46,0.9-0.6c0.39-0.14,0.84-0.21,1.36-0.21c0.51,0,0.93,0.06,1.25,0.18
			c0.32,0.12,0.55,0.27,0.7,0.45s0.26,0.41,0.32,0.69c0.03,0.17,0.05,0.48,0.05,0.94v1.35c0,0.94,0.02,1.54,0.06,1.79
			c0.04,0.25,0.13,0.49,0.26,0.72h-1.06C304.46,57.22,304.39,56.97,304.36,56.69z M304.28,54.43c-0.37,0.15-0.92,0.28-1.66,0.38
			c-0.42,0.06-0.71,0.13-0.88,0.2c-0.17,0.08-0.31,0.18-0.4,0.33c-0.09,0.14-0.14,0.31-0.14,0.48c0,0.27,0.1,0.5,0.31,0.68
			c0.2,0.18,0.5,0.27,0.9,0.27c0.39,0,0.74-0.09,1.04-0.26c0.3-0.17,0.53-0.4,0.67-0.7c0.11-0.23,0.16-0.57,0.16-1.01V54.43z"/>
		<path class="st0" d="M309.09,56.52l0.15,0.9c-0.29,0.06-0.54,0.09-0.77,0.09c-0.37,0-0.65-0.06-0.86-0.17
			c-0.2-0.12-0.35-0.27-0.43-0.46s-0.12-0.59-0.12-1.2v-3.44h-0.74v-0.79h0.74v-1.48l1.01-0.61v2.09h1.02v0.79h-1.02v3.5
			c0,0.29,0.02,0.47,0.05,0.56c0.04,0.08,0.09,0.15,0.17,0.2c0.08,0.05,0.2,0.07,0.35,0.07C308.76,56.56,308.9,56.55,309.09,56.52z"
			/>
		<path class="st0" d="M310.08,50.34v-1.17h1.01v1.17H310.08z M310.08,57.43v-5.98h1.01v5.98H310.08z"/>
		<path class="st0" d="M312.27,54.44c0-1.11,0.31-1.93,0.92-2.46c0.51-0.44,1.14-0.66,1.88-0.66c0.82,0,1.49,0.27,2.02,0.81
			c0.52,0.54,0.78,1.28,0.78,2.23c0,0.77-0.12,1.38-0.35,1.82c-0.23,0.44-0.57,0.78-1.01,1.03c-0.44,0.24-0.92,0.37-1.44,0.37
			c-0.84,0-1.51-0.27-2.03-0.81C312.52,56.22,312.27,55.45,312.27,54.44z M313.31,54.44c0,0.77,0.17,1.34,0.5,1.72
			c0.33,0.38,0.76,0.57,1.26,0.57c0.5,0,0.92-0.19,1.26-0.57c0.33-0.38,0.5-0.97,0.5-1.75c0-0.74-0.17-1.3-0.5-1.68
			c-0.34-0.38-0.75-0.57-1.25-0.57c-0.51,0-0.93,0.19-1.26,0.57C313.47,53.1,313.31,53.67,313.31,54.44z"/>
		<path class="st0" d="M319.06,57.43v-5.98h0.91v0.85c0.44-0.66,1.07-0.99,1.9-0.99c0.36,0,0.69,0.06,0.99,0.19
			c0.3,0.13,0.53,0.3,0.68,0.51c0.15,0.21,0.26,0.46,0.32,0.75c0.04,0.19,0.06,0.52,0.06,0.99v3.68h-1.01v-3.64
			c0-0.41-0.04-0.72-0.12-0.93c-0.08-0.2-0.22-0.37-0.42-0.49c-0.2-0.12-0.44-0.18-0.71-0.18c-0.43,0-0.8,0.14-1.12,0.41
			c-0.31,0.27-0.47,0.79-0.47,1.56v3.27H319.06z"/>
	</g>
	<g>
		<path class="st0" d="M87.14,37.06c-0.78,0.22-1.57,0.44-2.35,0.64v4.23c0,1.08-0.22,1.62-0.84,1.95c-0.62,0.35-1.5,0.4-2.81,0.4
			c-0.05-0.57-0.36-1.46-0.64-2.04c0.73,0.04,1.5,0.04,1.73,0.04c0.26,0,0.35-0.09,0.35-0.37V38.3l-1.95,0.49l-0.6-2.15
			c0.73-0.15,1.62-0.35,2.55-0.58v-3.14h-2.35v-2.04h2.35v-3.45h2.21v3.45h2.06v2.04h-2.06v2.61L86.87,35L87.14,37.06z M97.01,30.96
			h-2.9V41.6c0,1.28-0.29,1.92-1.13,2.3c-0.82,0.4-2.04,0.44-3.74,0.44c-0.09-0.68-0.51-1.75-0.86-2.37
			c1.13,0.07,2.5,0.05,2.86,0.05c0.36,0,0.51-0.11,0.51-0.46v-10.6h-4.62v-2.17h9.87V30.96z"/>
		<path class="st0" d="M105.15,40.83c0.27,0.16,0.6,0.42,1.06,0.69c1.11,0.66,2.72,0.73,4.65,0.73c1.97,0,5.22-0.15,7.19-0.44
			c-0.22,0.57-0.57,1.57-0.58,2.13c-1.62,0.11-4.71,0.2-6.68,0.2c-2.21,0-3.65-0.18-4.8-0.86c-0.68-0.38-1.22-0.86-1.57-0.86
			c-0.55,0-1.42,0.99-2.23,2.01l-1.3-1.9c0.69-0.66,1.46-1.19,2.17-1.53v-4.6h-2.06v-2.01h4.14V40.83z M103.78,32.17
			c-0.51-0.84-1.7-2.08-2.7-2.99l1.61-1.15c1,0.8,2.24,1.99,2.81,2.83L103.78,32.17z M108.44,31.31c-0.29,0.58-0.64,1.09-0.99,1.53
			c-0.42-0.31-1.31-0.78-1.82-1c0.95-1.04,1.7-2.66,2.12-4.25l2.01,0.46c-0.13,0.49-0.29,0.95-0.46,1.42h1.44v-2.04h2.15v2.04h3.96
			v1.84h-3.96v1.53h4.71v1.82h-11.73v-1.82h4.87v-1.53H108.44z M107.16,41.05v-5.29h9.16v5.29H107.16z M109.18,39.32h4.98V37.5
			h-4.98V39.32z"/>
		<path class="st0" d="M138.03,36.38h-12.7v0.46c0,2.26-0.35,5.69-2.03,7.83c-0.36-0.42-1.33-1.28-1.82-1.55
			c1.44-1.86,1.57-4.47,1.57-6.33v-2.52h3.76c-0.31-0.67-0.82-1.55-1.3-2.23l1.55-0.68h-4.16V29.3h6.28c-0.22-0.49-0.53-1-0.82-1.42
			l2.24-0.55c0.46,0.58,0.91,1.37,1.15,1.97h5.89v2.06h-10.13c0.55,0.73,1.17,1.66,1.44,2.32l-1.3,0.58h4.23
			c0.49-0.8,1.04-2.01,1.35-2.88l2.43,0.75c-0.51,0.75-1.04,1.5-1.5,2.13h3.85V36.38z"/>
		<path class="st0" d="M159.09,41.44v2.17h-16.31v-2.17h4.71V27.64h2.24v13.79h2.39V27.64h2.24V37.7c0.91-1.73,2.01-4.32,2.61-6.4
			l1.95,0.93c-0.8,2.3-1.95,4.87-2.9,6.62l-1.66-0.84v3.43H159.09z M145.18,38.74c-0.4-1.75-1.35-4.67-2.19-6.91l1.99-0.58
			c0.86,2.13,1.92,5,2.37,6.73L145.18,38.74z"/>
		<path class="st0" d="M166.88,33.96c-0.84,0.84-1.81,1.61-2.72,2.1c-0.24-0.47-0.71-1.19-1.11-1.59c1.08-0.44,2.23-1.24,3.08-2.13
			h-2.7v-1.72h1.42c-0.15-0.62-0.57-1.55-0.97-2.26l1.53-0.64c0.49,0.68,0.95,1.62,1.09,2.24l-1.48,0.66h1.84v-3.21h2.01v3.21h3.45
			v1.72h-2.66c0.82,0.47,1.84,1.08,2.15,1.3l-1.13,1.51c-0.4-0.38-1.11-0.99-1.81-1.53v1.99h-2.01V33.96z M169.81,43.3
			c-0.36-0.27-0.84-0.6-1.39-0.93c-1.22,0.93-2.68,1.59-4.32,2.04c-0.2-0.49-0.62-1.26-0.99-1.62c1.31-0.29,2.54-0.77,3.58-1.4
			c-0.86-0.46-1.77-0.88-2.59-1.22c0.33-0.47,0.68-1.04,1.04-1.66h-1.39v-1.75h2.28c0.16-0.36,0.31-0.71,0.44-1.06l1.92,0.35
			c-0.09,0.24-0.2,0.47-0.31,0.71h2.32l0.33-0.05l1.17,0.44c-0.44,1.61-1.17,2.92-2.1,3.98c0.49,0.27,0.93,0.55,1.3,0.8L169.81,43.3
			z M167.24,38.5c-0.18,0.35-0.36,0.68-0.55,0.97c0.49,0.24,1,0.49,1.48,0.75c0.51-0.51,0.95-1.08,1.28-1.72H167.24z M172.17,28.35
			c-0.6,0.82-1.17,1.64-1.64,2.21l-1.39-0.62c0.42-0.64,0.91-1.62,1.2-2.3L172.17,28.35z M178.88,32.77
			c-0.35,2.55-0.89,4.69-1.75,6.48c0.84,1.44,1.95,2.59,3.32,3.34c-0.47,0.38-1.11,1.17-1.4,1.72c-1.26-0.78-2.26-1.82-3.08-3.1
			c-1.04,1.39-2.35,2.48-4.05,3.34c-0.2-0.44-0.77-1.35-1.15-1.77c1.84-0.82,3.19-1.97,4.12-3.48c-0.53-1.15-0.93-2.43-1.3-3.81
			c-0.29,0.58-0.62,1.13-0.97,1.62c-0.29-0.37-1.11-1.08-1.55-1.39c1.46-1.9,2.26-4.98,2.68-8.25l1.97,0.29
			c-0.15,1.02-0.33,2.04-0.55,3.01h4.85v2.01H178.88z M174.87,32.77c0.27,1.46,0.64,2.86,1.11,4.16c0.42-1.24,0.71-2.61,0.89-4.16
			H174.87z"/>
		<path class="st0" d="M200.47,39.21h-6.81v2.75c0,1.17-0.27,1.75-1.17,2.08c-0.88,0.35-2.04,0.36-3.54,0.36
			c-0.15-0.66-0.57-1.62-0.95-2.21c1.13,0.04,2.5,0.04,2.86,0.04s0.47-0.07,0.47-0.33v-2.7h-6.77v-2.06h6.77v-0.97
			c0.77-0.38,1.53-0.93,2.23-1.5h-5.87v-2.03h8.06l0.49-0.11l1.44,1.13c-1.06,1.11-2.5,2.28-4.03,3.16v0.31h6.81V39.21z
			 M186.8,33.32h-2.13v-4.18h6.82c-0.22-0.42-0.46-0.86-0.71-1.2l2.17-0.66c0.44,0.55,0.88,1.28,1.11,1.86h6.28v4.18h-2.24v-2.13
			H186.8V33.32z"/>
		<path class="st0" d="M218.66,41.97c0.78,0,0.91-0.73,1.06-3.74c0.55,0.44,1.51,0.89,2.13,1.04c-0.24,3.54-0.8,4.87-2.97,4.87
			h-2.66c-2.24,0-2.88-0.8-2.88-3.43v-1.88c-0.71,0.44-1.39,0.8-2.08,1.13c-0.29-0.42-0.89-1.06-1.42-1.5v5.98h-2.3v-9.58
			c-0.46,0.55-0.91,1.04-1.37,1.5c-0.27-0.53-0.99-1.7-1.39-2.21c1.82-1.62,3.61-4.2,4.62-6.82l2.21,0.73
			c-0.49,1.17-1.09,2.35-1.77,3.5v6.66c1.13-0.55,2.34-1.22,3.5-2.08v-8.47h2.35v6.59c1.46-1.31,2.81-2.83,3.89-4.49l2.08,1.42
			c-1.7,2.35-3.81,4.4-5.97,6.04v3.5c0,1.06,0.11,1.22,0.84,1.22H218.66z"/>
		<path class="st0" d="M235.19,27.42c-0.02,0.77-0.05,1.75-0.13,2.85c0.26,2.46,1.37,9.34,7.74,12.15c-0.68,0.53-1.3,1.26-1.59,1.88
			c-4.05-1.93-6.08-5.49-7.13-8.63c-1,3.21-2.92,6.51-6.71,8.74c-0.38-0.58-1.08-1.28-1.81-1.77c7.41-3.96,7.06-12.13,7.13-15.22
			H235.19z"/>
		<path class="st0" d="M262.98,33.24h-4.12v8.3c0,1.37-0.29,1.97-1.13,2.32c-0.8,0.36-2.06,0.42-3.87,0.42
			c-0.09-0.66-0.42-1.68-0.75-2.32c1.15,0.05,2.44,0.05,2.81,0.05c0.38-0.02,0.53-0.13,0.53-0.49v-7.61
			c-2.01,3.36-5.13,6.7-8.34,8.59c-0.4-0.64-1.13-1.46-1.73-1.97c3.03-1.5,5.91-4.34,7.81-7.3h-7.21V31h9.47v-3.58h2.41V31h4.12
			V33.24z"/>
		<path class="st0" d="M273.09,28.08c-0.47,1.26-1.08,2.55-1.73,3.8v12.55h-2.13v-9.25c-0.38,0.49-0.77,0.93-1.15,1.35
			c-0.2-0.55-0.78-1.73-1.17-2.26c1.64-1.64,3.25-4.21,4.16-6.82L273.09,28.08z M277.34,40.16c-0.91,1.59-2.37,3.19-3.63,4.23
			c-0.4-0.4-1.22-1.08-1.7-1.37c1.28-0.86,2.55-2.19,3.3-3.48L277.34,40.16z M284.22,36.67v2.12h-11.84v-2.12h2.44v-3.63h-1.99
			v-2.08h1.99v-3.41h2.12v3.41h2.65v-3.43h2.12v3.43h2.37v2.08h-2.37v3.63H284.22z M276.94,36.67h2.65v-3.63h-2.65V36.67z
			 M281.02,39.52c1.19,1.15,2.44,2.7,3.1,3.76l-1.82,1.15c-0.58-1.09-1.86-2.77-3.01-3.94L281.02,39.52z"/>
		<path class="st0" d="M291.63,34.41c0,2.92-0.26,7.39-1.77,10.22c-0.4-0.38-1.39-1.04-1.92-1.26c1.37-2.57,1.48-6.33,1.48-8.96
			V29.5h6.97c-0.2-0.62-0.46-1.26-0.69-1.81l2.19-0.51c0.33,0.71,0.69,1.59,0.95,2.32h5.89v2.06h-13.1V34.41z M304.93,41.69v2.04
			h-13.57v-2.04h6.75c1.77-2.72,3.1-6.39,3.76-9.47l2.34,0.77c-0.86,2.9-2.19,6.04-3.79,8.7H304.93z M294.05,33.19
			c0.78,1.99,1.64,4.49,2.06,6.19l-2.04,0.86c-0.35-1.7-1.2-4.32-1.93-6.29L294.05,33.19z M297.21,39.06
			c-0.22-1.68-0.89-4.29-1.46-6.26l1.97-0.51c0.62,2.01,1.3,4.47,1.59,6.2L297.21,39.06z"/>
		<path class="st0" d="M313.98,39.7c0.13,0.53,0.4,1.3,0.62,1.66c-2.88,2.13-3.39,2.59-3.69,2.97l-0.02-0.11
			c-0.02,0.04-0.02,0.07-0.02,0.11c-0.18-0.38-0.71-1.11-1.04-1.39c0.38-0.31,0.91-0.99,0.91-1.95v-2.86h-1.62v-1.84h1.62v-1.9
			h-0.84v-1.24c-0.09,0.16-0.22,0.31-0.33,0.42c-0.15-0.44-0.66-1.5-0.97-1.95c0.84-1.04,1.48-2.59,1.88-4.16l1.79,0.51
			c-0.11,0.4-0.24,0.8-0.38,1.22h2.41v1.86h-3.14c-0.27,0.55-0.55,1.04-0.86,1.51h3.56v1.82h-1.22v1.9h1.73v1.84h-1.73v2.55
			L313.98,39.7z M317.33,40.76c0.31,0.16,0.64,0.42,1.08,0.68c0.91,0.55,2.04,0.71,3.45,0.71c1.09,0,2.96-0.11,4.14-0.27
			c-0.18,0.57-0.46,1.62-0.47,2.17c-0.91,0.07-2.55,0.13-3.69,0.13c-1.57,0-2.66-0.27-3.65-0.88c-0.64-0.38-1.19-0.84-1.53-0.84
			c-0.44,0-1.15,1.08-1.68,1.99l-1.33-2.03c0.55-0.58,1.15-1.09,1.73-1.42v-5.73h-1.06v-1.95h3.01V40.76z M315.44,32.08
			c-0.18-1-0.64-2.55-1.06-3.7l1.79-0.53c0.44,1.15,0.93,2.63,1.15,3.63L315.44,32.08z M319.94,35.54c-0.64,0-1.3,0.11-1.46,0.29
			c-0.11-0.4-0.42-1.35-0.64-1.88c0.33-0.09,0.57-0.55,0.84-1.19c0.11-0.26,0.31-0.82,0.53-1.53h-1.46v-1.9h1.93
			c0.15-0.66,0.27-1.33,0.37-2.01l2.15,0.38c-0.13,0.55-0.26,1.08-0.42,1.62h3.78v1.9h-4.4c-0.33,0.89-0.69,1.77-1.02,2.54h1.08
			v-1.92h2.03v1.92h2.01v1.77h-2.01v1.72h2.5v1.9h-2.5v2.44h-2.03v-2.44h-3.38v-1.9h3.38v-1.72H319.94z"/>
	</g>
</g>
</svg>
